<?xml version="1.0" encoding="UTF-8" standalone="no"?>
<svg
   xmlns:dc="http://purl.org/dc/elements/1.1/"
   xmlns:cc="http://creativecommons.org/ns#"
   xmlns:rdf="http://www.w3.org/1999/02/22-rdf-syntax-ns#"
   xmlns:svg="http://www.w3.org/2000/svg"
   xmlns="http://www.w3.org/2000/svg"
   xmlns:sodipodi="http://sodipodi.sourceforge.net/DTD/sodipodi-0.dtd"
   xmlns:inkscape="http://www.inkscape.org/namespaces/inkscape"
   sodipodi:docname="ftr-logo.svg"
   inkscape:version="1.0 (4035a4fb49, 2020-05-01)"
   id="svg8"
   version="1.1"
   viewBox="0 0 58.208332 22.797602"
   height="22.797602mm"
   width="58.208332mm">
  <defs
     id="defs2">
    <inkscape:path-effect
       fuse_tolerance="0"
       hide_knot="false"
       vertical_pattern="false"
       prop_units="false"
       tang_offset="0"
       normal_offset="0"
       spacing="0"
       scale_y_rel="false"
       prop_scale="1"
       copytype="single_stretched"
       pattern="M 0,5 C 0,2.24 2.24,0 5,0 7.76,0 10,2.24 10,5 10,7.76 7.76,10 5,10 2.24,10 0,7.76 0,5 Z"
       lpeversion="1"
       is_visible="true"
       id="path-effect941"
       effect="skeletal" />
    <inkscape:path-effect
       fuse_tolerance="0"
       hide_knot="false"
       vertical_pattern="false"
       prop_units="false"
       tang_offset="0"
       normal_offset="0"
       spacing="0"
       scale_y_rel="false"
       prop_scale="1"
       copytype="single_stretched"
       pattern="M 0,5 C 0,2.24 2.24,0 5,0 7.76,0 10,2.24 10,5 10,7.76 7.76,10 5,10 2.24,10 0,7.76 0,5 Z"
       lpeversion="1"
       is_visible="true"
       id="path-effect937"
       effect="skeletal" />
    <inkscape:path-effect
       only_selected="false"
       apply_with_weight="true"
       apply_no_weight="true"
       helper_size="0"
       steps="2"
       weight="33.333333"
       lpeversion="1"
       is_visible="true"
       id="path-effect933"
       effect="bspline" />
    <inkscape:path-effect
       lpeversion="1"
       is_visible="true"
       id="path-effect929"
       effect="spiro" />
    <inkscape:path-effect
       end_linecap_type="peak"
       scale_width="1"
       miter_limit="4"
       linejoin_type="spiro"
       start_linecap_type="peak"
       interpolator_beta="0.75"
       interpolator_type="CentripetalCatmullRom"
       sort_points="true"
       offset_points="3.477435,0.69990699"
       lpeversion="1"
       is_visible="true"
       id="path-effect878"
       effect="powerstroke" />
    <inkscape:path-effect
       step="1"
       simplify_just_coalesce="false"
       simplify_individual_paths="false"
       helper_size="0"
       smooth_angles="0"
       threshold="0.0043076923"
       steps="1"
       lpeversion="1"
       is_visible="true"
       id="path-effect876"
       effect="simplify" />
    <inkscape:path-effect
       simplify_just_coalesce="false"
       simplify_individual_paths="false"
       helper_size="0"
       smooth_angles="360"
       threshold="0.00133333"
       steps="1"
       lpeversion="1"
       is_visible="true"
       id="path-effect871"
       effect="simplify" />
  </defs>
  <sodipodi:namedview
     inkscape:window-maximized="1"
     inkscape:window-y="-8"
     inkscape:window-x="-8"
     inkscape:window-height="1028"
     inkscape:window-width="1920"
     showgrid="false"
     inkscape:document-rotation="0"
     inkscape:current-layer="layer1"
     inkscape:document-units="mm"
     inkscape:cy="15.478053"
     inkscape:cx="120.17213"
     inkscape:zoom="3.9220734"
     inkscape:pageshadow="2"
     inkscape:pageopacity="0.0"
     borderopacity="1.0"
     bordercolor="#666666"
     pagecolor="#ffffff"
     id="base" />
  <metadata
     id="metadata5">
    <rdf:RDF>
      <cc:Work
         rdf:about="">
        <dc:format>image/svg+xml</dc:format>
        <dc:type
           rdf:resource="http://purl.org/dc/dcmitype/StillImage" />
        <dc:title />
      </cc:Work>
    </rdf:RDF>
  </metadata>
  <g
     id="layer1"
     inkscape:groupmode="layer"
     inkscape:label="Layer 1"
     transform="translate(122.91394,16.386086)">
    <g
       id="g914">
      <ellipse
         ry="1.0484945"
         rx="0.66383892"
         cy="-3.1889155"
         cx="-106.28242"
         id="path939"
         style="fill:#000000;fill-opacity:1;fill-rule:evenodd;stroke:none;stroke-width:0.8;stroke-linecap:round;stroke-linejoin:round;stroke-miterlimit:4;stroke-dasharray:none;stroke-opacity:1;paint-order:stroke markers fill" />
      <ellipse
         ry="0.96329951"
         rx="0.92339969"
         cy="-2.965759"
         cx="-113.21013"
         id="path941"
         style="fill:#000000;fill-opacity:1;fill-rule:evenodd;stroke:none;stroke-width:0.8;stroke-linecap:round;stroke-linejoin:round;stroke-miterlimit:4;stroke-dasharray:none;stroke-opacity:1;paint-order:stroke markers fill" />
      <path
         d="m -115.42826,-14.186464 c -0.14605,-0.0041 -0.3632,0.063 -0.79191,0.328227 -0.26544,0.206868 -2.19498,1.670044 -2.43982,4.1670559 -0.0739,0.8144259 -0.13074,1.1561645 -0.22701,1.5097683 -0.41361,1.3880014 -0.63339,2.374903 -0.57904,4.1038407 0.0473,1.4419695 -0.11252,1.8343802 -0.25905,2.6412712 -0.048,0.2075859 0.0366,0.1367544 0.10791,0.079175 l 0.40258,-0.3410638 c -0.0218,0.2414485 -0.50776,1.10165164 -0.67543,1.09560669 -0.18439,0.0630895 -0.13898,0.0996329 -0.0759,0.16272239 l 0.45,0.32942015 -0.14444,-0.0375996 c -0.16263,-0.00821 -0.13965,0.06314665 -0.0504,0.10797052 l 0.46828,0.38303667 -0.33152,-0.0951904 c -0.17362,0.0202 -0.0556,0.1155366 0.036,0.17993182 0.76562,0.75674546 1.48233,1.19539346 2.20228,1.65528016 0.0992,0.061396 0.20362,0.1236709 0.31278,0.1862933 -0.95792,0.8016023 -1.30375,1.3068931 -1.7294,1.8502639 l 0.11825,0.099565 c 0.57125,-0.7906521 1.16676,-1.4253566 1.79608,-1.8427099 l -0.0199,-0.014369 c 1.71309,0.9450776 4.53741,1.9319675 8.23051,1.4986357 0.66512,-0.089804 1.31422,-0.2864955 1.91922,-0.5884133 0.5962,0.5598515 1.1096,1.1428177 1.57497,1.7682503 l 0.11598,-0.076903 c -0.45811,-0.654499 -0.96965,-1.1417209 -1.57179,-1.7522895 1.40139,-0.7388063 2.55071,-2.0538678 3.08587,-3.92794216 -0.0669,0.0293598 -0.14801,0.0871374 -0.25024,0.18714399 0,0 0.11067,-0.20818482 0.16601,-0.31226788 l -0.15443,-0.19265365 0.12791,-0.033226 -0.24304,-0.3809352 0.15784,0.068213 c 0.11975,0.050046 0.12896,0.042644 0.0808,-0.048731 -0.69216,-1.1453566 -0.62094,-2.9315661 -0.75886,-4.9985589 -0.007,-0.1375128 -0.0172,-0.2751473 -0.0315,-0.4127978 0.30224,-0.6316649 0.56405,-3.0318029 0.84877,-4.7756316 0.0489,-0.273586 0.27607,-1.163855 -0.75625,-1.292351 -0.21498,-0.03369 -0.43339,-0.04845 -0.65196,-0.04743 -1.53003,0.0072 -3.06882,0.78786 -3.50907,1.258955 l -0.16494,-0.02425 c 0.49518,-0.251996 0.345,-0.473906 0.0887,-0.469935 -0.24298,-0.01372 -0.5099,-0.03224 -0.87779,-0.07094 -0.28663,-0.07393 -0.55138,-0.160976 -1.08175,-0.08866 0.2833,-0.318523 0.0422,-0.307236 -0.0987,-0.257118 l -0.36236,0.132961 c -0.8322,0.06055 -1.62189,0.227496 -2.32878,0.601306 -0.0136,-0.0381 -0.0285,-0.07599 -0.0457,-0.11348 -0.16042,-0.471367 -0.75017,-1.124832 -1.37261,-1.778302 -0.35197,-0.309353 -0.31173,-0.29419 -0.49066,-0.364464 -0.0667,-0.02622 -0.12877,-0.05425 -0.2164,-0.05668 z m 0.0546,0.12677 c 0.0594,-8.15e-4 0.10762,0.01013 0.14875,0.02851 0.98492,0.878496 1.72991,1.739844 1.83675,2.555621 -0.009,1.26379 -1.40711,2.543188 -2.2981,3.0166965 0.69834,0.043175 2.82326,-1.8209635 2.41652,-3.3112435 l 0.008,0.02238 2.22558,-0.647312 0.51423,-0.132961 -0.25712,0.221678 -0.37241,0.195039 1.55168,-0.05322 1.13497,0.115297 c -0.0605,0.181263 -0.27535,0.285388 -0.53616,0.366509 l 0.14602,0.0059 c 0.44436,0.151125 0.90232,0.131467 1.2071,0.05793 0.30601,-0.02052 0.51234,0.0154 0.44216,0.208046 -0.11931,0.237408 -0.48058,0.374032 -0.89971,0.48652 l 0.49833,-0.01068 c 0.6154,0.18589 1.10334,0.395361 1.49199,0.694623 -0.0923,0.04863 -0.53024,-0.05639 -0.82463,-0.09758 l 0.45222,0.310337 c 1.99207,1.4266435 2.01436,2.9680941 2.09256,4.956586 -0.002,1.3210495 0.0933,2.6299149 0.61181,3.5555826 l -0.14188,-0.1063801 c -0.11419,-0.054388 -0.14208,-0.034849 -0.0798,0.062022 0.0297,0.166933 0.15729,0.2849469 0.25718,0.4167741 l -0.10644,-0.044358 c -0.0779,-0.020289 -0.1451,-0.030672 -0.0621,0.097575 l 0.22111,0.28273447 c -0.13387,0.22685602 -0.33459,0.51687409 -0.25536,0.54246401 l 0.30915,-0.24888272 c -0.40845,1.01601558 -0.89226,1.74018864 -1.40095,2.30537614 -1.82247,2.064209 -3.96924,1.9857598 -5.67478,2.0482569 -2.23135,-0.1508787 -5.38494,-0.633391 -8.6871,-3.41847582 l 0.29023,0.10229046 c 0.11448,0.0394065 0.14895,0.01482 0.0745,-0.0969522 l -0.43801,-0.40848042 0.19509,0.07979885 c 0.0876,0.04063416 0.1287,0.04063306 0.016,-0.09399899 -0.13519,-0.16739459 -0.28564,-0.27384178 -0.43273,-0.3936571 l 0.65617,0.32805729 c -0.17042,-0.18037804 -0.31403,-0.369352 -0.78919,-0.45221509 0.17428,-0.0617475 0.39712,-0.26920475 0.62068,-0.47879529 0.1703,-0.22029229 0.22251,-0.31812269 0.0532,-0.18623619 l -0.27484,0.23053799 c 0.15001,-0.23709289 0.28648,-0.47920639 0.33692,-0.75363509 0.0437,-0.182419 0.0386,-0.2784348 -0.081,-0.1720371 l -0.42382,0.3771302 c 0.20187,-0.6089112 0.26484,-1.309532 0.26541,-2.0316728 -0.01,-1.3829261 -0.0213,-2.5980962 0.38838,-4.0492028 0.14931,-0.4409733 0.32003,-0.7917703 0.33572,-1.3713546 0.0748,-0.5858316 0.17048,-1.2028347 0.32216,-1.7793257 0.31351,-0.824967 0.62254,-1.648078 1.96908,-2.891176 0.4896,-0.329836 0.76833,-0.438013 0.94651,-0.440457 z m 0.11882,0.698428 c -0.0962,-0.0014 -0.21849,0.05501 -0.37434,0.185952 -0.98313,1.089574 -1.54262,2.796775 -1.52511,4.0255752 0.0708,0.2556465 0.23135,0.1295896 0.36356,0.1241008 0.25418,-0.071924 0.50837,-0.208658 0.76255,-0.3634985 1.10591,-0.6597425 1.34299,-0.9471715 1.65806,-1.2679855 0.17652,-0.161875 0.26113,-0.389395 0.20396,-0.718193 -0.17519,-0.545418 -0.21918,-1.032012 -0.85121,-1.782222 -0.0529,-0.126167 -0.12843,-0.202123 -0.23747,-0.203729 z m -0.0105,0.12694 c 0.10946,-0.003 0.17303,0.09492 0.21481,0.240818 0.52257,0.865472 0.64314,1.298008 0.73943,1.70441 0.0875,0.268878 -7.6e-4,0.432306 -0.16295,0.551382 -0.47207,0.547634 -1.54462,1.234726 -2.26209,1.5540128 -0.27398,0.1867839 -0.33415,0.059141 -0.32585,-0.1691972 0.22593,-1.3450526 0.56571,-2.6627576 1.61666,-3.8098046 0.071,-0.04803 0.13024,-0.07026 0.17999,-0.07162 z m 10.6617,0.460678 c 0.0436,2.09e-4 0.0874,7.47e-4 0.13131,0.0016 0.55273,-0.0261 0.8787,0.256969 0.8269,0.829515 -0.28539,1.732811 -0.5029,3.6938429 -0.80197,4.8010766 -0.0555,-0.3555154 -0.14814,-0.7105651 -0.30448,-1.0631196 0.103,-1.0143756 0.43493,-1.970732 0.62061,-3.002213 0.0687,-0.381646 -0.006,-0.55 -0.1847,-0.554903 -0.0811,-0.0022 -0.18366,0.02933 -0.3038,0.08996 -0.1359,0.08857 -0.28662,0.17416 -0.50027,0.24718 -0.50696,0.228456 -0.9856,0.457728 -1.32972,0.827413 -0.37179,-0.211438 -0.70324,-0.306752 -1.03501,-0.392749 0.12256,-0.107782 0.28296,-0.144658 0.3677,-0.323343 0.16173,-0.258513 0.0417,-0.461272 -0.46993,-0.425634 -0.23282,0.02964 -0.46743,0.05492 -0.71399,0.05021 1.17525,-0.795752 2.35175,-1.091578 3.69735,-1.084986 z m 0.25649,1.141044 c 0.16979,0.0029 0.1204,0.155579 0.0394,0.637656 -0.17067,0.802394 -0.38168,1.7056689 -0.54979,2.5712408 -0.30182,-0.5763402 -0.79048,-1.1449295 -1.58565,-1.6969698 0.35414,0.02312 0.58324,-0.0062 0.39905,-0.208387 -0.1012,-0.07639 -0.19897,-0.143112 -0.29398,-0.201969 0.53893,-0.454632 1.19922,-0.753193 1.83613,-1.081862 0.0648,-0.01309 0.1157,-0.02037 0.15488,-0.01971 z m -4.6183,1.055963 c -0.008,0.46769 -0.12073,0.8496417 -0.38986,1.1036728 -0.11468,0.1205889 -0.41963,0.2373479 -0.32601,-0.1064937 0.0576,-0.5265001 0.0385,-0.7831991 -0.1174,-0.9477651 0.0225,0.244639 0.0645,0.360949 0.0316,0.9719033 -0.0643,0.3343809 0.12753,0.3207299 0.25258,0.2964787 0.41649,-0.1165399 0.81457,-0.881184 0.54911,-1.317796 z m 1.07078,0.126259 c 0.42217,0.34063 1.01968,2.1968531 0.63692,2.5478406 l -0.0329,-0.4777164 c -0.16132,0.1890753 0.0404,0.6654365 -0.33527,0.7114345 l -0.0766,-0.1019499 c -0.0728,-0.012104 -0.0908,0.020597 -0.0329,0.115354 0.13005,0.1454369 0.39453,0.023629 0.46676,-0.1757288 0.2709,0.05389 0.251,-0.423235 0.25808,-0.8510977 -0.21697,-1.2141637 -0.53749,-1.6161393 -0.88404,-1.7681363 z m -2.4418,0.102689 c -0.0134,-0.0027 -0.0268,0.02783 -0.0401,0.07855 -0.0521,0.3490433 -0.2651,0.6733042 -0.46676,0.9993371 -0.35456,0.4269152 -0.98745,0.8852511 -0.97633,0.3684397 0.38874,-0.6483502 0.59851,-1.1188018 0.5449,-1.3842478 l -0.57654,1.2958723 c -0.0488,0.1619209 -0.12652,0.4519261 0.29415,0.4392652 0.37712,-0.1070499 1.23384,-0.8377749 1.25197,-1.7241755 -0.0104,-0.04863 -0.0208,-0.07091 -0.0312,-0.07304 z m 3.00187,0.01261 c 0.43671,0.257553 0.80081,0.4199421 1.08721,1.1366715 0.0519,0.1813275 -0.0384,0.092498 -0.0988,0.060375 -0.2654,-0.3266766 -0.53078,-0.4295717 -0.79618,-0.6094846 0.18923,0.2186894 0.48159,0.4654013 0.78522,0.7358003 0.23552,0.1337392 0.27813,-0.1154163 0.21963,-0.2635932 -0.44807,-0.966966 -0.93884,-1.023316 -1.19705,-1.059769 z m -6.05526,1.0584626 c -0.29992,0.3214659 -0.53445,0.6693123 -0.25944,0.735062 -0.14043,0.1843728 -0.31509,0.2904821 -0.37889,0.6499806 0.004,0.3068834 0.25339,0.2728394 0.46124,0.2965354 0.9335,-0.2943617 1.2942,-0.8888611 1.33983,-1.0927104 -0.0134,-0.065133 -0.0285,-0.1212425 -0.0768,0 -0.32251,0.4214182 -0.68524,0.8294029 -1.35767,0.9708816 -0.14022,-0.010737 -0.30707,-0.051576 -0.26013,-0.3322603 0.0807,-0.1818303 0.5159,-0.5557792 0.73541,-0.8904577 l -0.32465,0.2683072 c -0.26953,0.1368699 -0.0844,-0.2294539 0.12114,-0.6053384 z m 5.27556,0.0727 c 0.0995,0.2915481 0.18528,0.6104549 0.21412,1.0432973 -0.0259,0.7608141 -0.28919,1.0469392 -0.60948,1.2190261 -0.44048,0.1684748 -0.1058,-0.6273693 -0.12632,-0.9883751 -0.063,0.1546213 -0.55822,1.3769087 0.18669,1.0762396 0.38234,-0.2097275 0.66542,-0.5208177 0.68088,-1.1750657 0.013,-0.7125045 -0.17525,-0.9217508 -0.34589,-1.1751222 z m -3.81083,0.7138199 c -0.12699,0.1538366 -0.25259,0.325414 -0.36787,0.6315219 0.002,0.2653457 0.13729,0.2785803 0.34044,0.1647101 -0.0764,0.1476743 -0.11008,0.2383079 -0.1153,0.2910263 0.0633,0.2874772 0.42014,0.2396327 0.66038,0.1945851 0.68661,-0.3002676 0.91071,-0.8105293 0.95946,-1.0511923 -0.2865,0.3760621 -0.56633,0.7602317 -1.0145,0.9399844 -0.28067,0.00733 -0.60432,0.041299 -0.40053,-0.3781518 0.29978,-0.2556683 0.31987,-0.4408249 0.37174,-0.666168 -0.11838,0.1619988 -0.15593,0.2785556 -0.4228,0.5786442 0,0 -0.2979,0.090116 -0.25257,-0.1009276 z m 2.06467,0.043961 c -0.28331,0.635445 -0.61177,1.133479 -1.14218,1.0158648 0.001,0.2350931 0.16435,0.130703 0.27456,0.1372207 0.59284,-0.2359343 0.80452,-0.6697983 0.86762,-1.1530855 z m 0.24707,0.1372774 c -0.33069,0.3678165 -0.64729,0.7549953 -0.88404,1.2519684 -0.13284,0.4086965 0.17223,0.3279518 0.4283,0.3019875 1.19611,-0.6490044 1.18053,-1.0960397 1.19705,-1.5484464 -0.15849,0.6107498 -0.58364,1.1048117 -1.31234,1.4660913 -0.17132,0.030234 -0.32302,0.038441 -0.10985,-0.3624192 z"
         style="fill:#000000;fill-opacity:1;stroke:none;stroke-width:0.8;stroke-linecap:butt;stroke-linejoin:miter;stroke-miterlimit:4;stroke-dasharray:none;stroke-opacity:1"
         id="path890" />
      <path
         d="m -114.41341,3.3594929 c -0.11562,0.3862031 -0.10526,0.6104323 0.0868,0.6010791 -0.0552,0.2831939 -0.0308,0.4629894 0.13359,0.4607913 -0.003,0.1625564 0.0331,0.1985854 0.0735,0.2203703 -0.13677,0.4593449 -0.0177,0.6726272 0.12688,0.8614913 0.0355,0.1516106 0.10625,0.1976732 0.17363,0.2537681 -0.0423,0.238448 -0.0848,0.4770763 0.22707,0.500889 0.3979,-0.105525 0.41376,-0.3551573 0.46449,-0.5430893 -0.14566,0.1524646 -0.16287,0.3620178 -0.48453,0.4362553 -0.20164,-0.063187 -0.0897,-0.3117513 -0.0668,-0.5075924 l -0.0734,0.040099 c -0.26068,-0.1347177 0.0286,-0.5100114 0.0801,-0.7813516 -0.141,0.1760674 -0.28122,0.3519304 -0.30408,0.4957783 -0.14076,-0.4449524 -0.0222,-0.7013429 0.0703,-0.9766179 l -0.15358,0.1135362 c -0.005,-0.167988 0.0121,-0.2622244 0.04,-0.3205604 -0.0401,0.030511 -0.0801,0.071183 -0.12018,0.1669253 -0.14893,-0.1722899 -0.0556,-0.3324569 0.007,-0.4941869 0.0291,-0.066013 0.0765,-0.1429367 -0.0534,-0.1135373 l -0.0801,0.080141 c -0.10355,0.00636 -0.12106,-0.1306962 -0.0267,-0.454089 z m 7.42581,0.00602 -0.0508,0.045722 c 0.12673,0.376962 0.0521,0.4571521 -0.0254,0.5332064 l -0.22344,-0.2082167 c 0.12097,0.2993966 0.31603,0.6432224 0.17778,0.7870878 -0.0343,-0.065219 -0.0464,-0.1336077 -0.22855,-0.1777171 0.23554,0.4176687 0.43094,0.8354045 0.1371,1.2542405 -0.0124,-0.2623004 -0.11367,-0.3962433 -0.22343,-0.5179281 0.0501,0.2062471 0.10923,0.3943022 0.10666,0.7058117 0.004,0.3310567 -0.0713,0.5427894 -0.40621,0.3605451 -0.0485,-0.1358454 -0.0746,-0.3090377 -0.15239,-0.3961004 -0.042,-0.046066 -0.0685,-0.054805 -0.0558,0.0305 0.0341,0.2191503 0.0913,0.3779171 0.19294,0.421432 0.0791,0.1185184 0.14185,0.1054723 0.20822,0.1218849 0.21523,0.00306 0.34826,-0.1692949 0.36054,-0.5992042 0.16972,-0.064569 0.41443,-0.3911116 0.11678,-1.1476328 0.10737,-0.00296 0.25682,-0.1084387 0.0102,-0.5737593 0.27483,-0.093177 0.21091,-0.3451766 0.0558,-0.6398718 z m -6.7246,0.2878451 c -0.14988,0.1898939 -0.0565,0.3728328 0.0884,0.5189514 -0.0893,-0.1457669 -0.12,-0.3182051 -0.0884,-0.5189514 z m 5.95688,0.3501511 c 0.0658,0.2549288 0.18629,0.6959728 -0.0206,0.6473681 l -0.1567,-0.1113205 -0.0536,-0.074234 c -0.0388,0.172225 0.007,0.3694476 -0.1897,0.2350815 0.10238,0.1974226 0.20132,0.1699873 0.22264,0 l 0.008,-0.1154673 c 0.0928,0.1266659 0.17509,0.2041314 0.23502,0.1773192 0.24375,-0.075116 0.1681,-0.6202031 -0.0454,-0.7587468 z m -5.41027,0.4423893 c -0.18584,0.2977347 -0.11047,0.5849215 0.0344,0.5898333 -0.10816,-0.1594218 -0.0643,-0.3773302 -0.0344,-0.5898333 z m 5.05155,0.9967245 c -0.0228,0.1187272 0.0419,0.3249941 -0.17318,0.2514952 0.0205,0.1092795 0.0761,0.1219739 0.14018,0.1113777 0.13533,-0.065779 0.12721,-0.2696037 0.033,-0.3628729 z m -4.10583,0.3726987 c -0.0152,-7.694e-4 -0.0336,0.019216 -0.0498,0.068554 -0.12523,0.3674451 1.8e-4,0.5103104 0.13358,0.5276407 0.29853,-0.024136 0.2879,-0.092443 0.37395,-0.146933 -0.10074,0.041836 -0.1721,0.097007 -0.38735,0.086785 -0.12461,-0.1080992 -0.12416,-0.2622707 -0.04,-0.4472726 0.003,-0.052188 -0.0108,-0.087723 -0.0303,-0.088774 z"
         style="fill:#000000;fill-opacity:1;stroke:none;stroke-width:0.8;stroke-linecap:butt;stroke-linejoin:miter;stroke-miterlimit:4;stroke-dasharray:none;stroke-opacity:1"
         id="path1088" />
      <path
         d="m -105.6389,-6.8583354 c -0.31315,0.013959 -0.6898,0.4900983 -0.6898,0.4900983 0,0 -0.72176,0.5192282 -1.1144,2.0568334 -0.0322,0.1259174 -0.16095,0.5954414 -0.0957,1.1054896 0.0713,0.5573621 0.32221,0.7100718 0.32221,0.7100718 -0.22279,-0.6048039 -0.33796,-1.0935822 -0.1024,-1.8118697 0.31423,-0.9581936 0.87601,-1.7397569 1.40282,-2.011112 0.69713,-0.3590929 1.07368,0.9237404 1.07368,0.9237404 0,0 -0.13216,-0.7877914 -0.55797,-1.3456827 -0.0681,-0.089166 -0.15075,-0.1214774 -0.23843,-0.1175691 z m -7.39947,0.5317869 c -0.0665,0.00145 -0.13478,0.00967 -0.20458,0.025956 -0.74449,0.1737142 -1.86123,1.323532 -1.86123,1.323532 -0.11167,0.1613061 0.0828,0.016528 0.0828,0.016528 0,0 0.62864,-0.4135769 0.93885,-0.6162433 0.3102,-0.2026664 0.84375,-0.3598597 1.18705,-0.3350435 0.34329,0.024816 0.87273,0.3929191 0.87273,0.3929191 0,0 0.48389,0.4301418 0.77755,0.8106584 0.29366,0.3805166 0.38879,1.2366929 0.41774,1.1911964 0.0289,-0.045497 -0.0289,-0.5046107 -0.1613,-0.9347596 -0.13236,-0.4301493 -0.93476,-1.2738918 -0.93476,-1.2738918 0,0 -0.47216,-0.6148637 -1.11481,-0.6008516 z m 7.25714,0.8894354 c -0.0627,-5.825e-4 -0.12621,0.00547 -0.19005,0.018289 l 0.20288,0.1112646 c 1.42061,0.2081945 0.97839,2.9889798 0.28143,3.5732463 0.30679,-0.1755421 0.80634,-0.657217 0.88228,-1.9662422 -0.0387,-1.1060221 -0.5704,-1.7309061 -1.17654,-1.7365577 z m 0.29426,3.7027995 c -0.21603,0.1206209 -0.41557,0.2456558 -0.83764,0.2218486 l 0.67253,0.90931337 c 0.009,-0.17024121 -0.14765,-0.36426436 -0.27546,-0.55410767 -0.0984,-0.4184271 0.32052,-0.3567873 0.44057,-0.5770543 z m -6.94118,-3.2675668 c 0.69454,0.2756522 1.51565,1.30914 0.98855,2.8042202 -0.0362,0.170117 -0.26232,0.4506994 -0.89756,0.9678714 0.40296,-0.077129 0.46261,-0.1691883 0.63283,-0.2564368 0.58812,-0.1031554 0.39881,0.4615255 0.29779,1.00501711 -0.14135,1.41497026 0.51006,2.06658409 0.76516,2.10528059 -0.3478,-0.3059789 -0.65486,-0.91852591 -0.62039,-1.76609179 0.065,-0.58170344 0.3322,-1.13822361 0.34743,-1.70821521 0.0722,-0.9534537 -0.0412,-1.5712476 -0.19857,-2.1093706 -0.40381,-0.9096704 -1.01473,-0.9828266 -1.31524,-1.0422749 z m -2.16525,0.6129492 c -0.0258,9.012e-4 -0.50303,0.4890229 -0.63073,0.7477847 -0.15717,0.3184747 -0.28952,0.6369491 -0.18612,1.2077233 0.1034,0.5707753 0.9844,0.9802536 0.9844,0.9802536 l -0.19851,-0.2399098 c 0,0 -0.47153,-0.2770808 -0.59148,-0.6369169 -0.11994,-0.3598361 -0.0248,-0.7486364 -0.0248,-0.7486364 0,0 0.0869,-0.2688498 0.13648,-0.3515711 0.0496,-0.08272 0.16545,-0.2771108 0.16545,-0.2771108 0,0 0.004,-0.2729579 0.28126,-0.5955696 0.052,-0.06049 0.07,-0.086256 0.0641,-0.086047 z m 7.4148,2.975178 c -0.63562,2.198e-4 -1.16741,0.2303621 -1.44991,0.401609 -0.44874,0.29982515 -0.24445,0.52855071 0.0337,0.74920461 0.54975,0.33447153 0.66799,0.34626468 1.03972,0.58756154 0.27344,0.17749405 0.32628,0.23434626 0.49237,0.256096 -0.18762,1.47003975 -1.85815,1.93074745 -3.39831,1.18114275 0.47743,0.554721 2.08912,0.6444632 2.83131,0.051855 0.2314,0.2799241 0.50295,0.428465 0.83326,0.3846842 0.48534,-0.056006 0.95655,-0.3799977 1.14491,-0.930329 l 0.1843,0.1316547 c 0.13599,0.054367 0.0856,-0.023935 0.0278,-0.066453 l -0.18447,-0.1289278 0.061,-0.1564181 0.10797,0.029079 -0.004,-0.045664 -0.10382,-0.024934 0.0249,-0.078891 0.26995,0.0539572 c 0.0156,-0.0131428 0.0303,-0.026522 -0.004,-0.0539572 l -0.25217,-0.0540133 0.003,-0.10797052 0.18765,0.0848546 c 0.0615,0.0770753 0.1467,0.059568 0.11553,-0.0226059 l -0.29489,-0.12040883 0.0123,-0.10121117 c 0.1047,0.0131945 0.26749,0.001319 0.27847,0.0596934 0.0656,0.12060446 0.1206,0.0854404 0.14949,0.0373721 0.005,-0.0597076 0.0485,-0.12056819 -0.42779,-0.16613064 -0.01,-0.32398629 -0.0876,-0.51139516 -0.19936,-0.63129402 0.0461,0.16134414 0.0828,0.35544312 0.0997,0.61879856 l -0.0706,0.0290806 0.0665,0.0249338 -0.003,0.0817299 c -0.0909,-0.0297357 -0.16888,-0.0570984 -0.28813,-0.0443579 l 0.26587,0.11631914 6e-5,0.10541516 -0.13989,0.021753 0.11489,0.0306127 -0.008,0.0623059 -0.29352,-0.058103 0.27688,0.11211732 -0.0429,0.142729 -0.17726,-0.051344 0.15784,0.1121162 c -0.12377,0.291725 -0.31399,0.5557948 -0.65299,0.7578379 -0.50438,0.2398252 -0.95342,0.130039 -1.0934,-0.2599021 0.30116,-0.3419409 0.47552,-0.70824618 0.58717,-1.08663264 0.28185,-0.16813866 0.55895,-0.35580361 0.77618,-0.78964315 0.14343,-0.34306746 0.46631,-0.78213643 -0.13665,-1.07612661 -0.31816,-0.1219476 -0.62852,-0.1693213 -0.91744,-0.1691971 z m 0.0632,0.1467055 c 0.32746,-0.00584 0.60533,0.049648 0.84331,0.154998 0.44585,0.24661753 0.13594,0.70100001 -0.0219,0.8002647 -0.18146,0.0558784 -0.30816,-0.0242007 -0.30148,0.21923499 l 0.003,0.30698569 c -0.0266,0.10686265 -0.23996,0.29449133 -0.51248,0.25484744 -0.18585,-0.0103753 -0.27003,-0.17459906 -0.31789,-0.40285861 -0.052,-0.28652189 -0.10193,-0.4073066 -0.42484,-0.30971252 -0.16204,0.025435 -0.48086,0.12992908 -0.90988,-0.33157875 -0.0878,-0.28993893 0.32876,-0.42027247 0.78379,-0.56183204 0.31925,-0.084152 0.60396,-0.1258064 0.85865,-0.1303489 z m 0.88716,1.04568308 c -0.0693,0.12130458 -0.13843,0.2426861 -0.25763,0.34259815 -0.005,-0.07583776 -0.0125,-0.15018736 -0.011,-0.23298011 0.009,-0.0454668 5.3e-4,-0.10567673 0.0713,-0.0958729 0.0708,-0.004572 0.13347,-0.009177 0.19731,-0.0137451 z m -1.46456,0.0132912 c 0.0731,-4.3963e-4 0.12409,0.0520393 0.16,0.18680327 0.002,0.09942956 0.0226,0.18968947 0.0384,0.28227943 -0.16895,-0.11384951 -0.35469,-0.23371649 -0.62488,-0.3837181 0.12318,-0.0184822 0.21297,-0.0136341 0.31244,-0.054809 0.043,-0.0192669 0.0808,-0.0303654 0.11405,-0.0305556 z m -2.38614,0.54337295 c -0.0208,-0.001099 -0.0508,0.002869 -0.0951,0.009199 -0.11812,0.0168731 -0.66147,0.064104 -0.74921,0.0911018 -0.0877,0.026999 -0.22949,0.0573886 -0.0877,0.0945101 0,0 0.3139,-0.0877738 0.46238,-0.0843996 0.14849,0.003374 0.44546,0.003407 0.44546,0.003407 0,0 0.0844,0.0134791 0.0742,-0.0540144 -0.006,-0.0421839 -0.0153,-0.0579942 -0.05,-0.0598066 z m 0.0665,0.26700109 c -0.0192,-4.3963e-4 -0.0398,0.003737 -0.0537,0.008804 -0.0371,0.0134989 -0.48257,0.11473756 -0.7863,0.24297515 -0.30372,0.12823869 -0.0877,0.11808098 -0.0877,0.11808098 0,0 0.18565,-0.0944727 0.37463,-0.1484662 0.18899,-0.0539957 0.48255,-0.13159858 0.48255,-0.13159858 0,0 0.0979,0.0337583 0.11813,-0.0337374 0.0127,-0.0421828 -0.0156,-0.0553992 -0.0476,-0.0560576 z m 0.20952,0.0570237 c -0.0379,2.1982e-4 -0.0809,0.04964 -0.0809,0.04964 l -0.79305,0.32396868 c 0,0 -0.1215,0.087718 0.0169,0.043847 0.13837,-0.043871 0.83014,-0.32056045 0.83014,-0.32056045 0,0 0.10463,0.037127 0.0709,-0.0573644 -0.0105,-0.029529 -0.0267,-0.0396208 -0.0439,-0.0395307 z m -0.27648,0.30795179 c -0.01,6.5945e-4 -0.0229,0.006188 -0.0407,0.0150508 -0.0473,0.0236237 -0.61085,0.28347189 -0.61085,0.28347189 0,0 -0.11811,0.074219 0,0.043847 0.11812,-0.030372 0.60744,-0.2530856 0.60744,-0.2530856 0,0 0.0911,0.01009 0.0776,-0.043904 -0.008,-0.0337473 -0.0169,-0.0464022 -0.0336,-0.04538 z m 4.6989,0.0740056 c -0.0471,0.00211 -0.0447,0.091272 -0.0447,0.091272 0,0 0.005,0.084916 0.063,0.019141 0.0576,-0.065776 -0.008,-0.109618 -0.008,-0.109618 -0.004,-6.594e-4 -0.007,-9.892e-4 -0.0101,-7.694e-4 z m -1.4699,1.3226803 c -0.008,-0.00255 -0.0222,0.016923 -0.0425,0.060658 -0.24498,0.4806231 -0.63492,0.8497454 -1.42269,0.912836 -0.63709,0.030127 -1.06869,-0.113678 -1.492,-0.2644457 -0.0721,-0.045571 -0.0882,-0.041266 -0.009,0.047255 0.30583,0.1506314 0.55682,0.2913699 1.44791,0.3304995 0.35738,-0.00889 1.34726,-0.2214046 1.52346,-0.9726425 0.007,-0.071204 0.006,-0.1108787 -0.005,-0.1141606 z"
         style="fill:#000000;fill-opacity:1;stroke:none;stroke-width:0.8;stroke-linecap:butt;stroke-linejoin:miter;stroke-miterlimit:4;stroke-dasharray:none;stroke-opacity:1"
         id="path1025" />
      <path
         d="m -106.10174,-5.2253753 c -0.37186,0.011449 -0.75182,0.7136499 -0.75182,0.7136499 0,0 -0.32415,0.5634841 -0.27012,1.3160921 0.054,0.7526085 0.27012,0.9764475 0.27012,0.9764475 0,0 0.44385,0.640689 0.8298,0.5094652 0.38596,-0.1312238 0.54804,-0.2933263 0.64453,-0.5017408 0.0965,-0.2084145 0.29721,-0.8375554 0.11967,-1.5477087 0,0 -0.24317,0.1698204 -0.36281,-0.081049 -0.11965,-0.2508692 -0.0463,-0.3164708 -0.0463,-0.3164708 0,0 0.0733,-0.1466408 0.21611,-0.1350623 0.1428,0.011579 0.0811,-0.1582357 0.0811,-0.1582357 0,0 -0.26245,-0.6754319 -0.65612,-0.7680609 -0.0246,-0.00579 -0.0493,-0.00809 -0.0741,-0.00733 z m -6.85013,0.3551495 c -0.0195,-5.83e-5 -0.0393,1.758e-4 -0.0595,6.814e-4 -0.64523,0.016544 -1.06295,0.3102233 -1.06295,0.3102233 0,0 -0.54595,0.2729591 -0.74035,1.0381287 -0.19439,0.7651688 0.22747,1.4558968 0.34328,1.6999238 0.11581,0.244027 0.83546,0.88925295 1.9646,0.4425596 1.12914,-0.4466944 0.90994,-1.9108661 0.90994,-1.9108661 -0.0207,-0.045497 -0.0745,0.012438 -0.0745,0.012438 0,0 -0.13644,0.1364829 -0.37219,-0.049641 -0.23576,-0.1861208 -0.004,-0.5170192 -0.004,-0.5170192 0,0 0.13235,-0.1943897 0.29779,-0.090988 0.16544,0.103401 -0.0496,-0.3267561 -0.11581,-0.4218854 -0.0662,-0.095129 -0.21509,-0.2439985 -0.21509,-0.2439985 0,0 -0.2678,-0.2678585 -0.87115,-0.2695568 z m 6.62277,0.9868982 c 0.0537,-1.68e-5 0.11288,0.00406 0.17801,0.00841 0,0 0.3589,0.3126194 0.28171,0.8259368 -0.0772,0.5133175 -0.4554,0.4013815 -0.4554,0.4013815 0,0 -0.52105,-0.1235258 -0.43614,-0.6947363 0.069,-0.4641082 0.19913,-0.5409142 0.43182,-0.5409878 z m -6.82309,0.013234 c 0.33742,-0.00506 0.45523,0.3365204 0.45523,0.3365204 l -0.0373,0.049583 0.0662,0.045551 -0.0207,0.045494 0.0414,0.082695 c 0,0 0.0455,0.3474451 0.0166,0.471526 -0.029,0.124082 -0.008,0.1943518 -0.0373,0.2150321 -0.029,0.02068 -0.0289,0.078606 -0.0289,0.078606 l -0.0496,0.016528 v 0.066225 l -0.0538,0.020674 -0.0414,0.045494 c 0,0 -0.13236,0.1323283 -0.39706,0.082696 -0.26471,-0.049632 -0.27714,-0.070295 -0.35572,-0.1323361 -0.0786,-0.062041 -0.11166,-0.1034269 -0.11166,-0.1034269 0,0 0.0372,-0.049623 -0.0372,-0.066168 -0.0744,-0.016545 -0.11996,-0.3557179 -0.11996,-0.3557179 0,0 -3e-5,-0.6700296 0.50044,-0.8561519 0.0782,-0.029082 0.14823,-0.041888 0.21071,-0.042825 z"
         style="fill:#ffa928;fill-opacity:1;stroke:none;stroke-width:0.8;stroke-linecap:butt;stroke-linejoin:miter;stroke-miterlimit:4;stroke-dasharray:none;stroke-opacity:1"
         id="path1029" />
      <path
         id="path949"
         style="fill:#000000;fill-opacity:1;stroke:none;stroke-width:0.8;stroke-linecap:butt;stroke-linejoin:miter;stroke-miterlimit:4;stroke-dasharray:none;stroke-opacity:1"
         d="m -105.90289,-9.6055318 c 0,0 -0.14776,0.031335 -0.13433,0.1656759 0.0134,0.1343406 0.0493,0.295513 0.0493,0.295513 0,0 0.0314,0.1253856 0.21497,0.1432977 0.1836,0.017912 0.30448,0.00899 0.27314,-0.1522148 -0.0314,-0.1612086 -0.40303,-0.4522718 -0.40303,-0.4522718 z m -8.4794,0.4925971 c -0.24448,0.00683 -0.31834,0.3251532 -0.33016,0.3487885 -0.0135,0.027011 -0.027,0.3579372 0.4592,0.1688564 0,0 0.32413,-0.3916508 -0.0135,-0.499697 -0.0422,-0.013506 -0.0806,-0.018924 -0.11552,-0.017948 z m 9.1638,0.4985041 c -0.14169,0.00441 -0.2097,0.213442 -0.2097,0.213442 0,0 -0.0314,0.2687161 -0.0582,0.5597876 -0.0269,0.2910715 -0.0135,0.2283519 0.38059,0.5283791 0.39407,0.3000276 0.55081,0.062704 0.55081,0.062704 0,0 -0.24183,-1.0478588 -0.49708,-1.2851942 -0.0638,-0.059334 -0.11918,-0.080587 -0.16641,-0.079118 z m -11.50257,0.090932 c -0.0846,0.00186 -0.15995,0.027819 -0.17261,0.063271 0,0 -0.31739,0.3984054 -0.13506,0.567228 0.18233,0.1688221 0.31068,0.067531 0.31068,0.067531 0,0 0.16206,-0.1215382 0.24985,-0.4389244 0.0549,-0.1983664 -0.11187,-0.2622057 -0.25286,-0.2591056 z m 10.48591,0.039076 c -0.18495,0.00222 -0.41553,0.3924646 -0.41553,0.3924646 0,0 -0.0134,0.1074382 -0.004,0.3537294 0.009,0.2462915 0.33138,0.2686876 0.40303,0.259731 0.0716,-0.00896 0.25073,-0.00897 0.34925,-0.2060012 0.0985,-0.1970331 -0.0269,-0.4701627 -0.0269,-0.4701627 0,0 -0.004,0.00895 -0.18805,-0.259731 -0.0344,-0.050378 -0.0747,-0.070542 -0.11734,-0.07003 z m -12.06986,0.2267887 c 0,0 -0.38491,0.1755593 -0.31738,0.3713934 0.0675,0.1958341 0.35112,0.3984283 0.35112,0.3984283 0.2296,-0.1012934 0.3309,-0.2836134 0.27013,-0.4456831 -0.0608,-0.1620694 -0.30387,-0.3241386 -0.30387,-0.3241386 z m 2.85131,0.059864 c -0.10792,0.00678 -0.13665,0.1089358 -0.13665,0.1089358 0,0 -0.24309,0.2228766 -0.0473,0.4254636 0.19583,0.202587 0.30386,0.047255 0.30386,0.047255 l 0.22963,-0.1823172 c 0,0 0.12829,-0.155322 -0.14858,-0.3308973 -0.0865,-0.054867 -0.15195,-0.071523 -0.201,-0.06844 z m 1.12548,0.4802154 c -0.16426,-0.00107 -0.34373,0.060886 -0.34373,0.060886 0,0 -0.1891,0.074295 -0.34442,0.405187 -0.15531,0.3308921 0.12155,0.3849109 0.12155,0.3849109 0.22284,0.067529 0.11482,0.01352 0.4187,0.081049 0.30388,0.067529 0.39845,-0.1620881 0.41871,-0.2161111 0.0203,-0.054023 0.0337,-0.2295592 -0.007,-0.5401928 -0.0177,-0.1359022 -0.1363,-0.174898 -0.26405,-0.1757289 z m 1.97737,0.1644264 c 0,0 -0.47288,0.031007 -0.50389,0.1550547 -0.031,0.1240482 0,0.379856 0,0.379856 0,0 0.15504,0.3411793 0.38763,0.2791555 0.23259,-0.062024 0.35663,-0.2403635 0.35663,-0.2403635 0.11629,-0.5504626 -0.24037,-0.5737027 -0.24037,-0.5737027 z m 4.55703,0.3013629 c -0.0581,0.00345 -0.10627,0.037486 -0.10627,0.037486 -0.2239,0.1074725 -0.25076,0.2283794 -0.25076,0.2283794 0,0 -0.0716,0.2910305 -0.0716,0.4074588 0,0.1164288 0.11644,0.1567589 0.11644,0.1567589 0,0 0.0582,0.053745 0.24178,0.00449 0.1836,-0.049258 0.21497,-0.1208888 0.32692,-0.2194055 0.11195,-0.098516 0.0582,-0.2015143 0.0582,-0.2015143 0,0 -0.0896,-0.188121 -0.17914,-0.3358953 -0.0392,-0.064651 -0.0904,-0.080441 -0.13557,-0.077755 z m -9.43625,0.02323 c -0.0679,-0.00329 -0.15552,0.03005 -0.26462,0.1391515 -0.31739,0.3173866 -0.43892,0.499697 -0.43892,0.499697 0,0 -0.0811,0.1958143 -0.0743,0.4321654 0.007,0.2363517 0.007,0.3916661 0.19583,0.4524422 0.18908,0.060776 0.44568,0.1013254 0.44568,0.101325 0,0 0.58752,-0.1485754 0.60103,-0.5334906 0.0135,-0.3849153 -0.27689,-0.9453802 -0.27689,-0.9453802 0,0 -0.0581,-0.1396395 -0.18782,-0.1459103 z m 6.06605,0.1923134 c -0.0301,-8.793e-4 -0.0631,0.00384 -0.0978,0.018004 -0.13849,0.056657 -0.0818,0.1825443 -0.0818,0.1825443 0.0189,0.018886 0.044,0.264412 0.28955,0.1636879 0.24551,-0.1007236 0.0441,-0.3084624 0.0441,-0.3084624 0,0 -0.0637,-0.053119 -0.15403,-0.055774 z m 1.67697,0.1588031 c -0.0371,-2.088e-4 -0.0789,0.00347 -0.12364,0.00795 -0.17912,0.017912 -0.197,0.1880427 -0.24178,0.3537293 -0.0448,0.165687 0.27762,0.1791368 0.27762,0.1791368 0.1836,0.026868 0.24629,-0.1522751 0.25973,-0.3537862 0.0101,-0.1511333 -0.0605,-0.1864017 -0.17193,-0.1870315 z m 4.62348,0.08741 c -0.0617,0.00252 -0.0945,0.090704 -0.0945,0.090704 0,0 -0.1254,0.071652 -0.0358,0.2015145 0.0896,0.1298629 0.11199,0.138809 0.25081,0.080595 0.13882,-0.058214 0.0806,-0.1881104 0.0806,-0.1881104 0,0 -0.0224,-0.053699 -0.1299,-0.1522152 -0.0269,-0.024629 -0.0507,-0.033327 -0.0712,-0.032488 z m -14.32604,0.038225 c 0,0 -0.1891,1.3640968 -0.14183,1.3776021 0.0473,0.013506 0.10127,0.013537 0.29035,-0.09451 0.18908,-0.1080466 0.16886,-0.1283387 0.10808,-0.6888296 -0.0608,-0.5604905 -0.2566,-0.5942629 -0.2566,-0.5942625 z m 3.64907,0.551211 c -0.0363,8.463e-4 -0.0937,0.012676 -0.17812,0.05657 -0.16882,0.087788 -0.35112,0.2768834 -0.35112,0.2768834 0,0 -0.10807,0.2565927 -0.0338,0.499697 0,0 -0.007,0.087819 0.1621,0.1013251 0.16882,0.013506 0.34436,0 0.34436,0 0,0 0.081,-0.00675 0.14182,-0.1215449 0.0608,-0.1147994 0.15534,-0.2431462 0.15534,-0.2431462 0,0 0.0675,-0.081022 -0.0406,-0.310621 -0.10804,-0.2295988 -0.14852,-0.2498483 -0.14852,-0.2498483 0,0 -0.0152,-0.010159 -0.0515,-0.00931 z m 4.34392,0.1551685 c -0.0519,-2.308e-4 -0.0978,0.017124 -0.14699,0.05958 -0.11243,0.097042 -0.24554,0.3713977 -0.0567,0.4910071 0.18886,0.1196096 0.31745,0.060818 0.41553,-0.03777 0.10398,-0.1045155 0.22662,-0.3650854 0.0378,-0.4406285 -0.10623,-0.042493 -0.18289,-0.071888 -0.24962,-0.072189 z m 6.77811,0.19663 c -0.0307,6.154e-4 -0.15666,0.022661 -0.20368,0.3361226 -0.0537,0.3582421 0.24633,0.519462 0.24633,0.519462 l -0.0358,-0.8553005 c 0,0 -0.002,-3.737e-4 -0.007,-2.858e-4 z m -4.4712,0.00926 c 0,0 -0.0492,0.01789 -0.12984,0.1029725 -0.0806,0.085082 -0.19705,0.1880726 -0.17914,0.3403252 0.0179,0.152253 0.0671,0.2060016 0.0671,0.2060016 0,0 0.0269,0.1432926 0.18811,0.1119462 0.1612,-0.031346 0.43438,-0.1880538 0.43438,-0.1880538 0,0 0.0985,-0.026898 0.0626,-0.2149752 -0.0358,-0.1880765 -0.0895,-0.2910701 -0.2194,-0.3134604 -0.12987,-0.02239 -0.22389,-0.044756 -0.22389,-0.044756 z m 1.24322,0.8183262 c -0.0297,0.00112 -0.079,0.014575 -0.16852,0.032487 -0.17912,0.035825 -0.24627,0.197042 -0.18805,0.4612455 0.0582,0.2642032 0.25524,0.129837 0.25524,0.129837 0,3e-7 0.12091,-0.1119393 0.17465,-0.1656756 0.0537,-0.053736 -0.0224,-0.4164898 -0.0224,-0.4164898 -0.0112,-0.031346 -0.0213,-0.042524 -0.0509,-0.041405 z m -10.31297,0.1627789 c -0.11742,-0.00236 -0.21048,0.1663005 -0.21048,0.1663005 0,0 -0.22959,0.263375 -0.31063,0.533491 -0.081,0.2701158 0.15532,0.3781344 0.26337,0.3578756 0.10805,-0.020259 0.31736,0.1080545 0.49294,0.07429 0.17557,-0.033764 0.20935,-0.330897 0.20935,-0.330897 0,0 -0.0608,-0.1891012 -0.24985,-0.6077808 -0.065,-0.1439213 -0.13319,-0.1920412 -0.1947,-0.1932793 z m 7.73769,0.1561909 c -0.0823,0.00484 -0.14576,0.051507 -0.20276,0.101325 -0.0715,0.062522 -0.0714,0.1189734 -0.14477,0.245532 -0.0734,0.1265585 -0.0686,0.2395536 0.0426,0.3479361 0.1112,0.1083826 0.19708,0.118378 0.39479,0.085309 0.19772,-0.033069 0.19642,-0.05632 0.25502,-0.2380915 0.0586,-0.1817716 0.0399,-0.2506001 -0.0189,-0.3525368 -0.0576,-0.099824 -0.18913,-0.1798133 -0.2896,-0.1888488 -0.0126,-0.00113 -0.0247,-0.00131 -0.0365,-6.265e-4 z m -5.5864,0.06401 c -0.071,0 -0.1266,0.027149 -0.1266,0.027149 -0.18908,0.081035 -0.45243,0.4929567 -0.31062,0.7090491 0.14181,0.216093 0.46596,0.1080275 0.46596,0.1080275 0,0 0.33762,-0.2296066 0.23633,-0.5942633 -0.057,-0.2051193 -0.17377,-0.2499619 -0.26507,-0.2499623 z m 7.06119,0.2478602 c -0.0565,0.0028 -0.12709,0.021854 -0.18306,0.086785 -0.11195,0.1298626 -0.2015,0.2731217 -0.10746,0.3805942 0.094,0.1074725 0.0941,0.1120029 0.0941,0.1120029 0,0 0.0672,0.1432812 0.22389,0.049243 0.15673,-0.094039 0.15227,-0.085081 0.15227,-0.085081 0,0 0.0537,-0.031339 0.0716,-0.1388111 0.0179,-0.1074725 -0.0134,-0.2194467 0.0314,-0.2687048 0.0448,-0.049258 -0.18362,-0.1254069 -0.18362,-0.1254069 0,0 -0.0425,-0.01342 -0.099,-0.010622 z m -10.4148,0.8294582 c -0.10321,0.00429 -0.20345,0.1045634 -0.20345,0.1045634 l -0.10127,1.2222638 c 0,0 0.18907,0.074254 0.24309,0.033736 0.054,-0.040518 0.0811,0.033777 0.34442,-0.1823168 0.26336,-0.2160927 0.14852,-0.4118887 0.14852,-0.4118887 0,0 -0.14851,-0.3376841 -0.26331,-0.6280583 -0.043,-0.1088905 -0.10608,-0.1408716 -0.168,-0.1382994 z m 2.31043,0.9910444 c -0.18202,0.011541 -0.3192,0.2885277 -0.3192,0.2885277 -0.22285,0.3241402 -0.25657,1.0196602 0.31068,1.0736834 0.56724,0.054023 0.68877,-0.1755795 0.36463,-0.9791744 -0.12155,-0.3013474 -0.24691,-0.3899609 -0.35611,-0.3830367 z m -1.62024,0.5834158 c -0.0149,1.099e-4 -0.0225,0.00222 -0.0225,0.00222 0,0 0.0135,0.067561 -0.12155,0.1013255 -0.13506,0.033765 -0.16886,0.3578995 -0.17561,0.3849106 -0.007,0.027012 -0.0337,0.4456832 0.22963,0.4456832 0.26336,0 0.35787,-0.1215453 0.35787,-0.1215453 0,0 0.0541,-0.1890761 0.16886,-0.3849106 0.1148,-0.1958344 -0.11479,-0.2633664 -0.11479,-0.2633664 -0.16713,-0.1468758 -0.27729,-0.1646293 -0.32192,-0.1643117 z m 3.14966,0.7872582 c -0.0692,-0.00169 -0.13336,0.025331 -0.13336,0.025331 -0.16207,-0.027011 -0.20261,0.18232894 -0.0878,0.3241391 0.1148,0.14181125 0.24315,0.0337374 0.24315,0.0337374 0,0 0.18234,-0.006737 0.14182,-0.2363312 -0.0203,-0.1148002 -0.0946,-0.1451876 -0.1638,-0.1468758 z m -2.60492,0.99098728 c 0,0 -0.41866,0.14180795 -0.36464,0.58074613 0.054,0.43893928 0.57399,0.303861 0.57399,0.303861 0,0 0.21606,-0.2160949 0.22281,-0.26336532 0.007,-0.0472704 0.0811,-0.10804636 -0.10803,-0.32413797 -0.18908,-0.21609381 -0.14181,-0.22282129 -0.32413,-0.29710384 z m 1.74456,0.46436983 c -0.0225,-5.4954e-4 -0.0361,0.001594 -0.0361,0.001594 0,0 -0.35789,0.0404979 -0.50645,0.43216564 -0.14856,0.39166885 0.27007,0.76306295 0.27007,0.76306295 0,0 0.78338,-0.027006 0.70234,-0.64151877 -0.0658,-0.49929207 -0.33229,-0.55279318 -0.42989,-0.55530019 z m 1.59252,0.0455504 c -0.17538,0.002814 -0.42319,0.20966967 -0.46034,0.3814463 -0.054,0.24985761 0.29711,0.37815229 0.29711,0.37815229 0.36465,-0.0675287 0.40518,-0.27683891 0.3309,-0.6144835 -0.0232,-0.10551407 -0.088,-0.14639223 -0.16767,-0.14511509 z m 0.60795,1.48705019 c -0.0996,0.00264 -0.1972,0.089682 -0.1972,0.089682 -0.12155,0.1147991 0.0338,0.2903555 0.0878,0.303861 0.054,0.013508 0.37817,-0.013514 0.27013,-0.2701247 -0.0405,-0.096229 -0.10099,-0.1250019 -0.16074,-0.1234181 z m -2.95234,0.4745924 -0.27013,0.3038621 c 0,0 0.14184,0.3646666 0.41871,0.3376556 0.27687,-0.027012 0.49295,-0.047291 0.51321,-0.2836423 0.0203,-0.2363521 -0.66179,-0.3578754 -0.66179,-0.3578754 z m 1.42485,0.6752551 c 0,0 0.12155,0.5267735 0.31738,0.574044 0.19584,0.047269 0.41871,0.1080265 0.41871,0.1080265 0,0 0.29712,-0.027032 0.37815,-0.2836423 0.081,-0.2566103 -1.11424,-0.3984282 -1.11424,-0.3984282 z m -1.34233,0.7284166 c -0.0398,-0.0012 -0.085,0.00514 -0.13654,0.021185 -0.41192,0.1283047 -0.2904,0.3376567 -0.2904,0.3376567 0.0743,0.3173863 0.23636,0.3308731 0.26337,0.3038621 0.027,-0.027012 0.0946,-0.08106 0.2904,-0.087808 0.19583,-0.00675 0.16204,-0.1890761 0.16204,-0.1890761 0,0 -0.0103,-0.3774182 -0.28887,-0.3858197 z m 10.59729,0.035441 c 0,0 -0.25151,0.00415 -0.20203,0.2639336 0.0495,0.259779 0.13603,0.5937526 0.13603,0.5937526 0,0 0.099,0.3546606 0.41649,0.4206352 0.31751,0.065977 0.37935,0.070087 0.37935,0.070087 0,0 0.12782,-0.02476 0.20617,-0.272169 0.0783,-0.2474078 -0.0907,-0.1773193 -0.0907,-0.1773193 z m -8.69903,0.8224716 c -0.15669,-0.0019 -0.22503,0.1424466 -0.22503,0.1424466 -0.10805,0.081035 -0.11478,0.4321524 0.14858,0.5469515 0.26336,0.1148002 0.41865,-0.1080265 0.41865,-0.1080265 0,0 0.13504,-0.3443974 -0.15534,-0.5199735 -0.0726,-0.043894 -0.13463,-0.060765 -0.18686,-0.061398 z" />
      <path
         id="path1073"
         style="opacity:0.937908;fill:#000000;fill-opacity:1;fill-rule:evenodd;stroke:none;stroke-width:0.8;stroke-miterlimit:4;stroke-dasharray:none"
         d="m -111.31749,-16.386085 a 11.603475,11.603475 0 0 0 -11.59645,11.6034962 11.603475,11.603475 0 0 0 4.28059,9.0009033 l 0.13228,-0.1758422 a 11.383633,11.383633 0 0 1 -4.19307,-8.8250611 11.383633,11.383633 0 0 1 11.38364,-11.3836362 11.383633,11.383633 0 0 1 11.383635,11.3836362 11.383633,11.383633 0 0 1 -5.340415,9.6470789 l 0.13375,0.1756157 a 11.603475,11.603475 0 0 0 5.426525,-9.8226946 11.603475,11.603475 0 0 0 -11.603495,-11.6034962 11.603475,11.603475 0 0 0 -0.007,0 z" />
      <g
         style="font-style:normal;font-variant:normal;font-weight:normal;font-stretch:normal;font-size:105.833px;line-height:1.25;font-family:'Script MT Bold';-inkscape-font-specification:'Script MT Bold, ';letter-spacing:-2.11667px;word-spacing:0px;fill:#ffa928;fill-opacity:1;stroke:none;stroke-width:7.2788;stroke-miterlimit:4;stroke-dasharray:none"
         id="text1242"
         aria-label="Cheetah"
         transform="matrix(0.1099082,0,0,0.1099082,-109.40469,-14.58512)">
        <path
           id="path943"
           style="font-style:normal;font-variant:normal;font-weight:normal;font-stretch:normal;font-size:105.833px;font-family:'Script MT Bold';-inkscape-font-specification:'Script MT Bold, ';fill:#ffa928;fill-opacity:1;stroke-width:7.2788;stroke-miterlimit:4;stroke-dasharray:none"
           d="m 155.84575,66.04023 q -12.24728,12.712362 -29.55883,12.712362 -12.4023,0 -20.36045,-7.75144 -7.906467,-7.803117 -7.906467,-19.998716 0,-12.143924 5.736067,-23.099293 5.73606,-10.955369 14.98612,-17.518255 9.30173,-6.5628865 18.24172,-6.5628865 7.49306,0 12.1956,4.4958355 4.75422,4.495835 4.75422,11.678837 0,9.353405 -5.73607,16.226349 -5.68439,6.821267 -13.33248,6.821267 -4.03075,0 -6.61456,-2.067051 -2.58381,-2.06705 -2.58381,-5.322655 0,-2.790519 2.22208,-5.167627 1.65364,3.0489 4.54751,3.0489 4.1341,0 7.64809,-5.167627 3.56566,-5.167627 3.56566,-11.317103 0,-4.289131 -2.01538,-6.821268 -1.96369,-2.5321373 -5.27098,-2.5321373 -4.80589,0 -10.28357,5.9944473 -5.42601,5.994447 -9.09503,15.399528 -3.61734,9.405081 -3.61734,17.87999 0,10.80034 6.0978,17.72496 6.14948,6.92462 15.60624,6.92462 5.99445,0 10.80034,-2.790518 4.80589,-2.790519 9.97352,-8.73329 z" />
        <path
           id="path945"
           style="font-style:normal;font-variant:normal;font-weight:normal;font-stretch:normal;font-size:105.833px;font-family:'Script MT Bold';-inkscape-font-specification:'Script MT Bold, ';fill:#ffa928;fill-opacity:1;stroke-width:7.2788;stroke-miterlimit:4;stroke-dasharray:none"
           d="m 204.37182,66.04023 q -12.24727,12.712362 -20.15374,12.712362 -3.51399,0 -5.83942,-2.377108 -2.27376,-2.428785 -2.27376,-6.0978 0,-6.201152 4.75422,-17.466579 2.53214,-6.0978 2.53214,-7.958145 0,-2.118727 -2.01538,-2.118727 -2.06705,0 -5.99444,2.842194 -3.9274,2.790519 -8.26821,7.648088 -1.80867,9.508434 -1.80867,22.840911 l -11.5238,2.687166 q -0.6718,-5.426008 -0.6718,-11.782189 0,-15.399528 4.23746,-28.68033 4.23745,-13.280801 13.33248,-28.163567 6.76959,-2.7388419 11.78219,-4.4441588 5.06427,-1.7569931 5.78774,-1.7569931 1.34358,0 2.27375,2.1704033 0.93018,2.1704033 0.93018,5.4260086 0,5.477684 -3.35896,12.143923 -3.35896,6.614563 -10.54196,16.019644 6.87294,-3.979073 9.1467,-5.012599 2.27376,-1.033525 4.65086,-1.033525 2.63549,0 4.23746,1.912022 1.65364,1.860346 1.65364,4.960922 0,4.650864 -3.72069,14.417679 -3.66902,9.766815 -3.66902,12.247276 0,1.136878 0.67179,2.015375 0.72347,0.878496 1.65364,0.878496 3.30729,0 12.1956,-9.97352 z M 168.56017,44.85296 q 18.44843,-21.445652 18.44843,-31.625877 0,-3.100577 -1.70532,-3.100577 -2.84219,0 -8.11317,10.180226 -5.27098,10.180225 -8.62994,24.546228 z" />
        <path
           id="path947"
           style="font-style:normal;font-variant:normal;font-weight:normal;font-stretch:normal;font-size:105.833px;font-family:'Script MT Bold';-inkscape-font-specification:'Script MT Bold, ';fill:#ffa928;fill-opacity:1;stroke-width:7.2788;stroke-miterlimit:4;stroke-dasharray:none"
           d="m 240.80565,66.04023 q -6.56289,6.459534 -11.78219,9.56011 -5.2193,3.0489 -11.52381,3.0489 -7.02797,0 -11.36878,-4.495836 -4.28913,-4.495835 -4.28913,-11.833865 0,-10.955369 7.59642,-19.792012 7.59641,-8.888318 16.84646,-8.888318 4.80589,0 7.69976,2.480461 2.89387,2.480461 2.89387,6.51121 0,10.696988 -22.73755,17.363227 2.06705,10.076872 10.80034,10.076872 3.41063,0 6.51121,-1.808669 3.10057,-1.860346 9.3534,-8.164851 z m -27.07836,-9.56011 q 13.22912,-3.720691 13.22912,-13.745887 0,-4.960922 -3.61734,-4.960922 -3.41063,0 -6.51121,5.219303 -3.10057,5.167627 -3.10057,13.487506 z" />
        <path
           id="path950"
           style="font-style:normal;font-variant:normal;font-weight:normal;font-stretch:normal;font-size:105.833px;font-family:'Script MT Bold';-inkscape-font-specification:'Script MT Bold, ';fill:#ffa928;fill-opacity:1;stroke-width:7.2788;stroke-miterlimit:4;stroke-dasharray:none"
           d="m 277.34283,66.04023 q -6.56289,6.459534 -11.78219,9.56011 -5.2193,3.0489 -11.52381,3.0489 -7.02797,0 -11.36878,-4.495836 -4.28913,-4.495835 -4.28913,-11.833865 0,-10.955369 7.59641,-19.792012 7.59641,-8.888318 16.84647,-8.888318 4.80589,0 7.69976,2.480461 2.89387,2.480461 2.89387,6.51121 0,10.696988 -22.73756,17.363227 2.06705,10.076872 10.80034,10.076872 3.41064,0 6.51121,-1.808669 3.10058,-1.860346 9.35341,-8.164851 z m -27.07837,-9.56011 q 13.22913,-3.720691 13.22913,-13.745887 0,-4.960922 -3.61734,-4.960922 -3.41063,0 -6.51121,5.219303 -3.10058,5.167627 -3.10058,13.487506 z" />
        <path
           id="path952"
           style="font-style:normal;font-variant:normal;font-weight:normal;font-stretch:normal;font-size:105.833px;font-family:'Script MT Bold';-inkscape-font-specification:'Script MT Bold, ';fill:#ffa928;fill-opacity:1;stroke-width:7.2788;stroke-miterlimit:4;stroke-dasharray:none"
           d="m 304.9917,66.04023 q -6.51121,6.459534 -11.26543,9.56011 -4.75422,3.0489 -9.04335,3.0489 -4.44416,0 -7.23468,-3.720691 -2.73884,-3.772368 -2.73884,-9.870168 0,-5.374332 2.58382,-14.210974 l 2.27375,-7.803117 -3.97907,0.206705 1.65364,-8.113174 4.90924,-0.206705 4.85757,-16.122996 13.84924,-2.842195 -5.27098,17.983342 7.18301,-0.41341 -1.70532,7.958145 -8.00982,0.620115 -3.46231,11.575485 q -1.757,6.046123 -1.757,9.611786 0,2.428785 1.18856,3.979073 1.24023,1.498611 3.15225,1.498611 2.63549,0 5.2193,-1.65364 2.58382,-1.705317 7.59642,-7.027973 z" />
        <path
           id="path954"
           style="font-style:normal;font-variant:normal;font-weight:normal;font-stretch:normal;font-size:105.833px;font-family:'Script MT Bold';-inkscape-font-specification:'Script MT Bold, ';fill:#ffa928;fill-opacity:1;stroke-width:7.2788;stroke-miterlimit:4;stroke-dasharray:none"
           d="m 358.06529,66.04023 q -8.26821,7.854793 -11.83387,10.231902 -3.56566,2.377108 -6.82127,2.377108 -8.16485,0 -7.69976,-14.417679 -5.16763,7.389706 -9.56011,10.903693 -4.34081,3.513986 -8.99167,3.513986 -4.54751,0 -7.75144,-4.237454 -3.15226,-4.289131 -3.15226,-10.490283 0,-7.75144 4.23746,-14.779413 4.28913,-7.027973 10.95537,-11.368779 6.66624,-4.340807 11.78219,-4.340807 6.45953,0 9.04334,5.942771 l 10.54196,-5.839418 h 2.89387 l -4.54751,15.141147 q -3.51398,11.420455 -3.51398,15.657909 0,4.444159 3.15225,4.444159 2.01537,0 4.44416,-2.118727 2.42878,-2.170403 6.82127,-6.562886 z m -37.82703,2.842195 q 5.16762,0 9.71513,-8.784966 4.59919,-8.836642 4.59919,-16.278025 0,-2.893871 -1.2919,-4.495835 -1.29191,-1.653641 -3.46231,-1.653641 -5.16763,0 -9.8185,8.784966 -4.59918,8.784966 -4.59918,16.174672 0,2.790519 1.34358,4.547512 1.39526,1.705317 3.51399,1.705317 z" />
        <path
           id="path956"
           style="font-style:normal;font-variant:normal;font-weight:normal;font-stretch:normal;font-size:105.833px;font-family:'Script MT Bold';-inkscape-font-specification:'Script MT Bold, ';fill:#ffa928;fill-opacity:1;stroke-width:7.2788;stroke-miterlimit:4;stroke-dasharray:none"
           d="m 406.6947,66.04023 q -12.24727,12.712362 -20.15374,12.712362 -3.51399,0 -5.83942,-2.377108 -2.27376,-2.428785 -2.27376,-6.0978 0,-6.201152 4.75422,-17.466579 2.53214,-6.0978 2.53214,-7.958145 0,-2.118727 -2.01538,-2.118727 -2.06705,0 -5.99444,2.842194 -3.9274,2.790519 -8.26821,7.648088 -1.80867,9.508434 -1.80867,22.840911 l -11.5238,2.687166 q -0.6718,-5.426008 -0.6718,-11.782189 0,-15.399528 4.23746,-28.68033 4.23745,-13.280801 13.33248,-28.163567 6.76959,-2.7388419 11.78219,-4.4441588 5.06427,-1.7569931 5.78774,-1.7569931 1.34358,0 2.27375,2.1704033 0.93018,2.1704033 0.93018,5.4260086 0,5.477684 -3.35896,12.143923 -3.35896,6.614563 -10.54196,16.019644 6.87294,-3.979073 9.1467,-5.012599 2.27376,-1.033525 4.65086,-1.033525 2.63549,0 4.23746,1.912022 1.65364,1.860346 1.65364,4.960922 0,4.650864 -3.72069,14.417679 -3.66902,9.766815 -3.66902,12.247276 0,1.136878 0.67179,2.015375 0.72347,0.878496 1.65364,0.878496 3.30729,0 12.1956,-9.97352 z M 370.88305,44.85296 q 18.44843,-21.445652 18.44843,-31.625877 0,-3.100577 -1.70532,-3.100577 -2.84219,0 -8.11317,10.180226 -5.27098,10.180225 -8.62994,24.546228 z" />
      </g>
      <g
         style="font-style:normal;font-variant:normal;font-weight:bold;font-stretch:normal;font-size:100.806px;line-height:1.25;font-family:Montserrat;-inkscape-font-specification:'Montserrat Bold';letter-spacing:1.5875px;fill:#1a191b;fill-opacity:1;stroke:none;stroke-width:7.2788;stroke-miterlimit:4;stroke-dasharray:none"
         id="text1246"
         aria-label="GANG"
         transform="matrix(0.1099082,0,0,0.1099082,-109.40469,-14.58512)">
        <path
           id="path959"
           style="font-style:normal;font-variant:normal;font-weight:bold;font-stretch:normal;font-size:100.806px;font-family:Montserrat;-inkscape-font-specification:'Montserrat Bold';fill:#1a191b;fill-opacity:1;stroke-width:7.2788;stroke-miterlimit:4;stroke-dasharray:none"
           d="m 149.50426,149.38615 c -4.23385,2.11692 -8.66932,3.3266 -12.19753,3.3266 -11.49188,0 -20.1612,-8.77013 -20.1612,-20.36282 0,-11.49188 8.56851,-20.262 19.95959,-20.262 6.45158,0 13.60881,3.02418 18.64911,7.76206 l 10.48382,-12.90317 c -7.25803,-6.45158 -18.44749,-10.483822 -29.03212,-10.483822 -22.37894,0 -39.011927,15.322512 -39.011927,35.886932 0,20.56443 16.229767,36.08855 37.802247,36.08855 9.87899,0 21.87491,-3.83063 29.43536,-9.07254 v -27.82245 h -15.92735 z" />
        <path
           id="path961"
           style="font-style:normal;font-variant:normal;font-weight:bold;font-stretch:normal;font-size:100.806px;font-family:Montserrat;-inkscape-font-specification:'Montserrat Bold';fill:#1a191b;fill-opacity:1;stroke-width:7.2788;stroke-miterlimit:4;stroke-dasharray:none"
           d="m 231.04982,167.63203 h 19.65717 L 221.07003,96.967028 H 202.1185 l -30.34261,70.665002 h 18.95153 l 4.93949,-12.49994 h 30.54422 z m -29.83858,-26.61278 9.87899,-25.2015 9.67738,25.2015 z" />
        <path
           id="path963"
           style="font-style:normal;font-variant:normal;font-weight:bold;font-stretch:normal;font-size:100.806px;font-family:Montserrat;-inkscape-font-specification:'Montserrat Bold';fill:#1a191b;fill-opacity:1;stroke-width:7.2788;stroke-miterlimit:4;stroke-dasharray:none"
           d="m 258.68936,96.967028 v 70.665002 h 17.23783 v -42.33852 l 32.05631,42.33852 h 16.12896 V 96.967028 H 306.97544 V 139.50716 L 274.91913,96.967028 Z" />
        <path
           id="path965"
           style="font-style:normal;font-variant:normal;font-weight:bold;font-stretch:normal;font-size:100.806px;font-family:Montserrat;-inkscape-font-specification:'Montserrat Bold';fill:#1a191b;fill-opacity:1;stroke-width:7.2788;stroke-miterlimit:4;stroke-dasharray:none"
           d="m 386.19931,149.38615 c -4.23385,2.11692 -8.66932,3.3266 -12.19753,3.3266 -11.49188,0 -20.1612,-8.77013 -20.1612,-20.36282 0,-11.49188 8.56851,-20.262 19.95959,-20.262 6.45159,0 13.60881,3.02418 18.64911,7.76206 l 10.48383,-12.90317 c -7.25804,-6.45158 -18.4475,-10.483822 -29.03213,-10.483822 -22.37893,0 -39.01192,15.322512 -39.01192,35.886932 0,20.56443 16.22976,36.08855 37.80225,36.08855 9.87898,0 21.8749,-3.83063 29.43535,-9.07254 v -27.82245 h -15.92735 z" />
      </g>
      <path
         id="path968"
         style="font-style:normal;font-variant:normal;font-weight:bold;font-stretch:normal;font-size:30.6917px;line-height:1.25;font-family:Montserrat;-inkscape-font-specification:'Montserrat Bold';fill:#1a191b;fill-opacity:1;stroke:#ffffff;stroke-width:3.02362;stroke-linecap:round;stroke-linejoin:round;stroke-miterlimit:4;stroke-dasharray:none;stroke-opacity:1;paint-order:stroke markers fill"
         d="m 110.38086,14.003906 c -0.48786,-0.04562 -1.02346,0.01897 -1.59766,0.201172 -2.05372,0.651685 -2.99744,2.43499 -2.34961,4.476563 0.63626,2.005118 2.38031,2.911049 4.53125,2.228515 1.21522,-0.385614 2.06876,-1.112599 2.49805,-2.078125 l -1.48828,-0.771484 c -0.29866,0.576298 -0.77303,0.980822 -1.33203,1.158203 -0.74128,0.235238 -1.41952,-0.0041 -1.86133,-0.679688 l 4.57031,-1.449218 c -0.46037,-1.830195 -1.50713,-2.94907 -2.9707,-3.085938 z m -11.277344,0.664063 -2.16211,0.685547 2.861328,9.017578 2.162106,-0.685547 -1.02929,-3.246094 c -0.27379,-0.862809 0.0203,-1.623968 0.81836,-1.890625 0.69267,-0.219779 1.26477,0.106385 1.5,0.847656 l 1.11718,3.525391 2.16407,-0.6875 -1.31641,-4.142578 c -0.48973,-1.543336 -1.74529,-2.214739 -3.19141,-1.755859 -0.96003,0.304629 -1.58589,0.94378 -1.80859,1.84375 z m 10.701174,0.986328 c 0.50107,0.03787 0.91053,0.378267 1.08984,0.943359 l -2.52734,0.802735 c -0.0932,-0.799711 0.20534,-1.456034 0.91015,-1.679688 0.18229,-0.05785 0.36032,-0.07903 0.52735,-0.06641 z m -13.134768,0.333984 -7.302734,2.31836 0.582031,1.833984 2.527343,-0.800781 2.121094,6.683594 2.222656,-0.707032 -2.121093,-6.683594 2.552734,-0.808593 z"
         transform="matrix(0.26458333,0,0,0.26458333,-122.91394,-19.132831)" />
    </g>
  </g>
</svg>
