<?xml version="1.0" encoding="UTF-8" standalone="no"?>
<svg
   xmlns:dc="http://purl.org/dc/elements/1.1/"
   xmlns:cc="http://creativecommons.org/ns#"
   xmlns:rdf="http://www.w3.org/1999/02/22-rdf-syntax-ns#"
   xmlns:svg="http://www.w3.org/2000/svg"
   xmlns="http://www.w3.org/2000/svg"
   xmlns:xlink="http://www.w3.org/1999/xlink"
   xmlns:sodipodi="http://sodipodi.sourceforge.net/DTD/sodipodi-0.dtd"
   xmlns:inkscape="http://www.inkscape.org/namespaces/inkscape"
   sodipodi:docname="logo.svg"
   inkscape:version="1.0 (4035a4fb49, 2020-05-01)"
   id="svg8"
   version="1.1"
   viewBox="0 0 58.097424 22.754164"
   height="22.754164mm"
   width="58.097424mm">
  <defs
     id="defs2">
    <linearGradient
       inkscape:collect="always"
       id="linearGradient907">
      <stop
         style="stop-color:#595959;stop-opacity:1"
         offset="0"
         id="stop903" />
      <stop
         style="stop-color:#000000;stop-opacity:1"
         offset="1"
         id="stop905" />
    </linearGradient>
    <inkscape:path-effect
       fuse_tolerance="0"
       hide_knot="false"
       vertical_pattern="false"
       prop_units="false"
       tang_offset="0"
       normal_offset="0"
       spacing="0"
       scale_y_rel="false"
       prop_scale="1"
       copytype="single_stretched"
       pattern="M 0,5 C 0,2.24 2.24,0 5,0 7.76,0 10,2.24 10,5 10,7.76 7.76,10 5,10 2.24,10 0,7.76 0,5 Z"
       lpeversion="1"
       is_visible="true"
       id="path-effect941"
       effect="skeletal" />
    <inkscape:path-effect
       fuse_tolerance="0"
       hide_knot="false"
       vertical_pattern="false"
       prop_units="false"
       tang_offset="0"
       normal_offset="0"
       spacing="0"
       scale_y_rel="false"
       prop_scale="1"
       copytype="single_stretched"
       pattern="M 0,5 C 0,2.24 2.24,0 5,0 7.76,0 10,2.24 10,5 10,7.76 7.76,10 5,10 2.24,10 0,7.76 0,5 Z"
       lpeversion="1"
       is_visible="true"
       id="path-effect937"
       effect="skeletal" />
    <inkscape:path-effect
       only_selected="false"
       apply_with_weight="true"
       apply_no_weight="true"
       helper_size="0"
       steps="2"
       weight="33.333333"
       lpeversion="1"
       is_visible="true"
       id="path-effect933"
       effect="bspline" />
    <inkscape:path-effect
       lpeversion="1"
       is_visible="true"
       id="path-effect929"
       effect="spiro" />
    <inkscape:path-effect
       end_linecap_type="peak"
       scale_width="1"
       miter_limit="4"
       linejoin_type="spiro"
       start_linecap_type="peak"
       interpolator_beta="0.75"
       interpolator_type="CentripetalCatmullRom"
       sort_points="true"
       offset_points="3.477435,0.69990699"
       lpeversion="1"
       is_visible="true"
       id="path-effect878"
       effect="powerstroke" />
    <inkscape:path-effect
       step="1"
       simplify_just_coalesce="false"
       simplify_individual_paths="false"
       helper_size="0"
       smooth_angles="0"
       threshold="0.0043076923"
       steps="1"
       lpeversion="1"
       is_visible="true"
       id="path-effect876"
       effect="simplify" />
    <inkscape:path-effect
       simplify_just_coalesce="false"
       simplify_individual_paths="false"
       helper_size="0"
       smooth_angles="360"
       threshold="0.00133333"
       steps="1"
       lpeversion="1"
       is_visible="true"
       id="path-effect871"
       effect="simplify" />
    <linearGradient
       gradientTransform="matrix(0.10969878,0,0,0.10969878,-109.43043,-14.588551)"
       inkscape:collect="always"
       xlink:href="#linearGradient907"
       id="linearGradient909"
       x1="-19.706289"
       y1="3.5480814"
       x2="-18.529543"
       y2="178.23904"
       gradientUnits="userSpaceOnUse" />
  </defs>
  <sodipodi:namedview
     inkscape:window-maximized="1"
     inkscape:window-y="-8"
     inkscape:window-x="-8"
     inkscape:window-height="1028"
     inkscape:window-width="1920"
     showgrid="false"
     inkscape:document-rotation="0"
     inkscape:current-layer="layer1"
     inkscape:document-units="mm"
     inkscape:cy="17.180632"
     inkscape:cx="44.762816"
     inkscape:zoom="3.0786151"
     inkscape:pageshadow="2"
     inkscape:pageopacity="0.0"
     borderopacity="1.0"
     bordercolor="#666666"
     pagecolor="#ffffff"
     id="base" />
  <metadata
     id="metadata5">
    <rdf:RDF>
      <cc:Work
         rdf:about="">
        <dc:format>image/svg+xml</dc:format>
        <dc:type
           rdf:resource="http://purl.org/dc/dcmitype/StillImage" />
        <dc:title></dc:title>
      </cc:Work>
    </rdf:RDF>
  </metadata>
  <g
     id="layer1"
     inkscape:groupmode="layer"
     inkscape:label="Layer 1"
     transform="translate(122.91394,16.386085)">
    <g
       id="g970">
      <path
         id="path893"
         d="m -104.48255,-7.1590806 0.0356,1.2905117 0.0901,1.4924109 0.13051,1.40298 0.40677,1.4294245 -0.22126,-0.044273 0.25669,0.41598 -0.1682,0.053116 0.22069,0.28219572 -0.0583,0.2770355 0.11196,0.0159864 c 0,0 -0.4505,1.43688947 -1.10305,2.08943818 -0.65255,0.6525486 -1.27247,1.2235297 -1.27247,1.2235297 l -0.6856,0.4655419 -0.88052,0.3012032 c 0,0 -1.70825,0.3542964 -2.41443,0.3099605 -0.70618,-0.044336 -2.21866,-0.1141964 -2.21866,-0.1141964 0,0 -3.7901,-0.8218084 -4.69286,-1.5039231 -0.90275,-0.6821158 -1.53899,-1.0410184 -1.53899,-1.0410184 l -1.05989,-0.79115202 0.29501,-0.0845788 -0.4674,-0.38230683 0.19444,-0.07023684 -0.31558,-0.40226104 0.39829,-0.4336667 v 0 l 0.1677,-0.40103127 0.0503,-0.347766 -0.3856,0.2013006 -0.008,-0.3026798 0.17173,-0.8454486 v -2.2325136 l 0.1189,-1.1360721 0.31704,-1.6512673 0.22457,-0.6737172 0.16359,-0.5963309 0.0874,-1.0813573 0.35668,-1.268173 0.71334,-1.215333 1.12945,-1.096739 0.89023,-0.566147 0.20294,0.154986 0.90819,0.768132 0.96457,1.272141 0.0787,0.216493 0.84579,-0.405403 1.4455,-0.297987 v 0 l 0.45129,-0.05306 -0.25663,0.221255 0.67161,-0.02873 0.50542,0.17028 0.51176,0.0015 0.62104,0.113625 -0.17698,0.327433 0.34053,0.03242 v 0 l 0.70816,-0.552744 1.20212,-0.422724 0.52841,-0.09247 0.99076,-0.132102 0.7794,0.05284 0.3963,0.277413 0.0415,0.61639 -0.0415,0.625363 -0.11889,0.96434 -0.15852,1.0568115 -0.31705,1.7833688 z"
         style="fill:url(#linearGradient909);fill-opacity:1;stroke:none;stroke-width:0.264582px;stroke-linecap:butt;stroke-linejoin:miter;stroke-opacity:1" />
      <path
         d="m -115.44252,-14.190655 c -0.14577,-0.004 -0.36251,0.06288 -0.79041,0.327602 -0.26492,0.206474 -2.19079,1.666862 -2.43516,4.159116 -0.0738,0.8128741 -0.13049,1.1539615 -0.22658,1.5068915 -0.41283,1.3853567 -0.63218,2.3703778 -0.57794,4.0960213 0.0472,1.4392218 -0.11231,1.8308849 -0.25856,2.6362385 -0.0479,0.2071903 0.0365,0.1364938 0.10771,0.079024 l 0.40181,-0.340414 c -0.0218,0.2409885 -0.50679,1.09955258 -0.67414,1.09351915 -0.18404,0.0629693 -0.13871,0.099443 -0.0757,0.16241233 l 0.44914,0.32879248 -0.14415,-0.037528 c -0.16233,-0.008194 -0.13939,0.0630263 -0.0503,0.10776479 l 0.4674,0.38230683 -0.33089,-0.095009 c -0.17329,0.0201615 -0.0555,0.11531645 0.0359,0.17958897 0.76417,0.75530355 1.47951,1.19311575 2.1981,1.65212615 0.099,0.061279 0.20322,0.1234353 0.31218,0.1859384 -0.9561,0.8000749 -1.30127,1.3044029 -1.72611,1.8467383 l 0.11803,0.099375 c 0.57016,-0.7891456 1.16454,-1.4226407 1.79266,-1.8391988 l -0.0199,-0.014342 c 1.70983,0.9432767 4.52877,1.9282862 8.21483,1.4957801 0.66385,-0.089633 1.31172,-0.2859496 1.91556,-0.5872921 0.59507,0.5587847 1.10749,1.1406402 1.57197,1.7648811 l 0.11576,-0.076756 c -0.45724,-0.6532519 -0.9678,-1.1395455 -1.5688,-1.7489507 1.39873,-0.7373985 2.54586,-2.0499543 3.08,-3.92045782 -0.0668,0.0293038 -0.14773,0.0869714 -0.24977,0.18678741 0,0 0.11046,-0.20778814 0.1657,-0.31167289 l -0.15414,-0.1922866 0.12766,-0.033163 -0.24257,-0.3802094 0.15754,0.068083 c 0.11952,0.04995 0.12871,0.042563 0.0806,-0.048638 -0.69084,-1.1431743 -0.61975,-2.9259803 -0.75741,-4.9890346 -0.007,-0.1372508 -0.0172,-0.2746231 -0.0314,-0.4120113 0.30167,-0.6304613 0.56298,-3.026026 0.84715,-4.7665321 0.0488,-0.273065 0.27555,-1.161638 -0.7548,-1.289888 -0.21458,-0.03363 -0.43257,-0.04836 -0.65073,-0.04734 -1.52711,0.0072 -3.06297,0.786359 -3.50238,1.256555 l -0.16462,-0.02421 c 0.49423,-0.251516 0.34434,-0.473003 0.0885,-0.46904 -0.24252,-0.01369 -0.50893,-0.03218 -0.87612,-0.0708 -0.28608,-0.07379 -0.55033,-0.16067 -1.07969,-0.08849 0.28276,-0.317917 0.0421,-0.306651 -0.0985,-0.256629 l -0.36167,0.132708 c -0.83062,0.06043 -1.61879,0.227063 -2.32434,0.60016 -0.0136,-0.03803 -0.0284,-0.07584 -0.0456,-0.113263 -0.16011,-0.47047 -0.74874,-1.122689 -1.36999,-1.774914 -0.3513,-0.308763 -0.31114,-0.293629 -0.48973,-0.36377 -0.0666,-0.02617 -0.12852,-0.05415 -0.21598,-0.05657 z m 0.0545,0.126529 c 0.0593,-8.13e-4 0.1074,0.01011 0.14846,0.02846 0.98305,0.876823 1.72661,1.736529 1.83325,2.550752 -0.009,1.261382 -1.40443,2.5383422 -2.29373,3.0109485 0.69702,0.043093 2.81789,-1.8174935 2.41193,-3.3049345 l 0.008,0.02233 2.22133,-0.646078 0.51326,-0.132707 -0.25663,0.221255 -0.3717,0.194668 1.54872,-0.05312 1.13281,0.115077 c -0.0604,0.180917 -0.27482,0.284844 -0.53514,0.36581 l 0.14575,0.0059 c 0.44351,0.150836 0.90059,0.131215 1.2048,0.05782 0.30542,-0.02048 0.51136,0.01537 0.44131,0.207649 -0.11909,0.236956 -0.47967,0.37332 -0.898,0.485593 l 0.49739,-0.01066 c 0.61422,0.185536 1.10124,0.394608 1.48915,0.693299 -0.0921,0.04854 -0.52924,-0.05628 -0.82306,-0.09739 l 0.45135,0.309745 c 1.98827,1.4239252 2.01053,2.9624387 2.08857,4.9471418 -0.002,1.3185322 0.0931,2.6249037 0.61065,3.5488077 l -0.14161,-0.1061774 c -0.11397,-0.054285 -0.14181,-0.034782 -0.0797,0.061904 0.0296,0.1666149 0.15699,0.2844039 0.25669,0.41598 l -0.10624,-0.044273 c -0.0777,-0.02025 -0.14482,-0.030614 -0.062,0.09739 l 0.22069,0.28219572 c -0.13362,0.22642377 -0.33395,0.51588923 -0.25487,0.5414304 l 0.30856,-0.2484085 c -0.40767,1.01407966 -0.89057,1.73687288 -1.39828,2.30098348 -1.819,2.0602758 -3.96168,1.9819761 -5.66397,2.0443541 -2.22709,-0.1505912 -5.37468,-0.6321842 -8.67055,-3.41196222 l 0.28968,0.10209556 c 0.11427,0.0393314 0.14867,0.0147918 0.0743,-0.0967675 l -0.43718,-0.4077021 0.19472,0.0796468 c 0.0874,0.04055674 0.12846,0.04055564 0.0159,-0.09381988 -0.13494,-0.16707563 -0.28509,-0.27331999 -0.43191,-0.39290702 l 0.65493,0.32743221 c -0.1701,-0.18003435 -0.31344,-0.36864824 -0.78769,-0.45135344 0.17394,-0.0616299 0.39636,-0.2686918 0.61949,-0.47788301 0.16998,-0.2198725 0.22209,-0.3175165 0.0531,-0.1858813 l -0.27432,0.23009871 c 0.14972,-0.23664111 0.28593,-0.47829321 0.33628,-0.75219901 0.0436,-0.1820715 0.0385,-0.2779043 -0.0808,-0.1717093 l -0.42301,0.3764116 c 0.20148,-0.607751 0.26434,-1.3070369 0.26491,-2.0278017 -0.01,-1.3802911 -0.0213,-2.5931458 0.38763,-4.0414874 0.14903,-0.4401331 0.31942,-0.7902616 0.33509,-1.3687416 0.0746,-0.5847153 0.17014,-1.2005427 0.32153,-1.7759347 0.31292,-0.823395 0.62136,-1.644938 1.96533,-2.885667 0.48868,-0.329208 0.76687,-0.437179 0.94472,-0.439619 z m 0.11859,0.697097 c -0.096,-0.0014 -0.21807,0.0549 -0.37363,0.185598 -0.98125,1.087498 -1.53968,2.791446 -1.5222,4.0179046 0.0706,0.2551594 0.23091,0.1293426 0.36286,0.1238643 0.2537,-0.071787 0.5074,-0.2082604 0.7611,-0.3628059 1.1038,-0.658485 1.34043,-0.945367 1.65491,-1.265569 0.17618,-0.161567 0.26063,-0.388654 0.20356,-0.716825 -0.17485,-0.544379 -0.21876,-1.030045 -0.84959,-1.778826 -0.0528,-0.125927 -0.12818,-0.201738 -0.23701,-0.203341 z m -0.0104,0.126699 c 0.10925,-0.003 0.1727,0.09474 0.21439,0.240358 0.52158,0.863823 0.64192,1.295535 0.73803,1.701163 0.0873,0.268365 -7.6e-4,0.431482 -0.16264,0.550331 -0.47117,0.546591 -1.54167,1.2323735 -2.25778,1.5510519 -0.27346,0.186428 -0.33352,0.059029 -0.32523,-0.1688748 0.2255,-1.3424901 0.56463,-2.6576841 1.61358,-3.8025451 0.0708,-0.04793 0.12999,-0.07012 0.17965,-0.07148 z m 10.64138,0.459799 c 0.0435,2.09e-4 0.0872,7.46e-4 0.13106,0.0016 0.55168,-0.02605 0.87703,0.256479 0.82533,0.827934 -0.28485,1.729509 -0.50195,3.6868044 -0.80044,4.7919284 -0.0554,-0.354838 -0.14787,-0.7092111 -0.30391,-1.0610939 0.10281,-1.0124428 0.43411,-1.9669765 0.61944,-2.9964925 0.0685,-0.380919 -0.006,-0.548952 -0.18436,-0.553846 -0.081,-0.0022 -0.18331,0.02928 -0.30322,0.08979 -0.13564,0.0884 -0.28607,0.173828 -0.49931,0.246708 -0.506,0.228022 -0.98372,0.456857 -1.32719,0.825837 -0.37108,-0.211035 -0.7019,-0.306167 -1.03304,-0.392 0.12233,-0.107577 0.28242,-0.144382 0.36701,-0.322728 0.16141,-0.25802 0.0416,-0.460392 -0.46904,-0.424822 -0.23238,0.02958 -0.46654,0.05481 -0.71263,0.05011 1.173,-0.794236 2.34727,-1.089498 3.6903,-1.082919 z m 0.256,1.138871 c 0.16947,0.0029 0.12017,0.155282 0.0393,0.63644 -0.17035,0.800866 -0.38095,1.7024191 -0.54875,2.5663418 -0.30124,-0.5752421 -0.78896,-1.142748 -1.58262,-1.6937368 0.35347,0.02307 0.58213,-0.0061 0.39829,-0.20799 -0.10101,-0.07625 -0.1986,-0.142839 -0.29342,-0.201584 0.5379,-0.453765 1.19694,-0.751757 1.83262,-1.079801 0.0647,-0.01306 0.11549,-0.02033 0.15459,-0.01967 z m -4.6095,1.053951 c -0.008,0.466798 -0.1205,0.848022 -0.38911,1.101569 -0.11447,0.1203592 -0.41883,0.2368957 -0.32539,-0.1062908 0.0575,-0.5254972 0.0384,-0.7817072 -0.11718,-0.9459592 0.0225,0.244173 0.0644,0.360261 0.0315,0.9700515 -0.0642,0.3337437 0.12729,0.3201187 0.25209,0.2959138 0.41571,-0.1163179 0.81303,-0.8795043 0.54807,-1.3152843 z m 1.06874,0.126018 c 0.42137,0.339981 1.01774,2.1926669 0.63571,2.5429855 l -0.0329,-0.4768061 c -0.16101,0.188715 0.0403,0.6641686 -0.33463,0.710079 l -0.0764,-0.1017558 c -0.0726,-0.012081 -0.0906,0.020557 -0.0329,0.1151343 0.12981,0.1451598 0.39377,0.023584 0.46587,-0.175394 0.27038,0.053787 0.25052,-0.4224285 0.25759,-0.849476 -0.21656,-1.2118502 -0.53647,-1.6130599 -0.88236,-1.7647669 z m -2.43714,0.102493 c -0.0134,-0.0027 -0.0267,0.02778 -0.0401,0.0784 -0.052,0.3483775 -0.26459,0.6720206 -0.46587,0.9974323 -0.35389,0.4261017 -0.98557,0.8835643 -0.97447,0.3677376 0.38801,-0.6471148 0.59738,-1.1166699 0.54387,-1.3816099 l -0.57545,1.2934029 c -0.0487,0.1616123 -0.12628,0.4510649 0.29359,0.4384281 0.3764,-0.1068459 1.23149,-0.8361786 1.24959,-1.72089 -0.0104,-0.04854 -0.0208,-0.07077 -0.0312,-0.0729 z m 2.99615,0.01258 c 0.43588,0.257062 0.79928,0.4191419 1.08513,1.1345056 0.0518,0.1809821 -0.0383,0.092322 -0.0986,0.06026 -0.26489,-0.3260542 -0.52976,-0.4287532 -0.79466,-0.6083233 0.18887,0.2182727 0.48067,0.4645145 0.78372,0.7343983 0.23507,0.1334843 0.27761,-0.1151964 0.21921,-0.2630909 -0.44721,-0.9651237 -0.93704,-1.0213657 -1.19476,-1.0577497 z m -6.04372,1.0564457 c -0.29935,0.3208534 -0.53344,0.6680371 -0.25896,0.7336614 -0.14015,0.1840216 -0.31448,0.2899286 -0.37816,0.6487421 0.004,0.3062988 0.25291,0.2723196 0.46036,0.2959704 0.93172,-0.2938007 1.29174,-0.8871674 1.33728,-1.0906283 -0.0134,-0.065009 -0.0284,-0.1210115 -0.0767,0 -0.32189,0.4206153 -0.68393,0.8278225 -1.35508,0.9690317 -0.13995,-0.010717 -0.30648,-0.051478 -0.25963,-0.3316272 0.0806,-0.1814839 0.51492,-0.5547203 0.734,-0.8887611 l -0.32403,0.267796 c -0.26901,0.1366091 -0.0842,-0.2290167 0.12092,-0.604185 z m 5.2655,0.072561 c 0.0993,0.2909926 0.18493,0.6092918 0.21372,1.0413094 -0.0259,0.7593645 -0.28864,1.0449444 -0.60833,1.2167034 -0.43963,0.1681537 -0.1056,-0.6261739 -0.12607,-0.9864919 -0.0629,0.1543267 -0.55716,1.3742852 0.18633,1.0741889 0.38161,-0.2093278 0.66415,-0.5198253 0.67958,-1.1728267 0.013,-0.7111468 -0.17491,-0.9199944 -0.34523,-1.1728831 z m -3.80357,0.7124598 c -0.12674,0.1535435 -0.25211,0.3247939 -0.36717,0.6303186 0.002,0.2648401 0.13704,0.2780495 0.33979,0.1643963 -0.0763,0.1473929 -0.10986,0.2378538 -0.11507,0.2904717 0.0631,0.2869294 0.41934,0.2391761 0.65911,0.1942143 0.68531,-0.2996954 0.90899,-0.8089848 0.95764,-1.0491893 -0.28596,0.3753456 -0.56525,0.7587832 -1.01257,0.9381934 -0.28013,0.00732 -0.60317,0.04122 -0.39976,-0.3774313 0.2992,-0.2551812 0.31926,-0.4399849 0.37102,-0.6648987 -0.11814,0.1616901 -0.15563,0.2780249 -0.42199,0.5775417 0,0 -0.29733,0.089945 -0.25209,-0.1007353 z m 2.06074,0.043877 c -0.28277,0.6342343 -0.6106,1.1313193 -1.14,1.0139292 0.001,0.2346451 0.16404,0.130454 0.27403,0.1369593 0.59171,-0.2354848 0.80299,-0.6685221 0.86597,-1.1508885 z m 0.2466,0.1370159 c -0.33006,0.3671156 -0.64605,0.7535567 -0.88236,1.2495829 -0.13258,0.4079177 0.17191,0.3273269 0.42749,0.3014121 1.19383,-0.6477678 1.17828,-1.0939514 1.19476,-1.545496 -0.15818,0.609586 -0.58252,1.1027066 -1.30984,1.4632978 -0.17099,0.030176 -0.3224,0.038367 -0.10963,-0.3617287 z"
         style="fill:#ffffff;fill-opacity:1;stroke:none;stroke-width:0.264582px;stroke-linecap:butt;stroke-linejoin:miter;stroke-opacity:1"
         id="path890" />
      <path
         d="m -114.42961,3.3218701 c -0.11539,0.3854672 -0.10506,0.6092692 0.0866,0.5999338 -0.0551,0.2826543 -0.0307,0.4621072 0.13333,0.4599133 -0.003,0.1622467 0.033,0.198207 0.0734,0.2199504 -0.1365,0.4584696 -0.0176,0.6713456 0.12665,0.8598498 0.0355,0.1513217 0.10604,0.1972965 0.17329,0.2532846 -0.0422,0.2379937 -0.0846,0.4761673 0.22664,0.4999346 0.39714,-0.105324 0.41297,-0.3544806 0.4636,-0.5420546 -0.14538,0.1521742 -0.16255,0.3613281 -0.48361,0.4354241 -0.20125,-0.063067 -0.0895,-0.3111573 -0.0667,-0.5066252 l -0.0733,0.040023 c -0.26019,-0.134461 0.0285,-0.5090396 0.08,-0.7798628 -0.14074,0.1757319 -0.28069,0.3512598 -0.30351,0.4948336 -0.1405,-0.4441045 -0.0222,-0.7000066 0.0702,-0.974757 l -0.15329,0.1133199 c -0.005,-0.167668 0.0121,-0.2617248 0.04,-0.3199497 -0.04,0.030452 -0.08,0.071048 -0.11996,0.1666073 -0.14864,-0.1719617 -0.0555,-0.3318235 0.007,-0.4932452 0.0291,-0.065887 0.0763,-0.1426644 -0.0533,-0.1133211 l -0.08,0.079988 c -0.10335,0.00635 -0.12083,-0.1304472 -0.0267,-0.4532238 z m 7.41167,0.00601 -0.0507,0.045635 c 0.12649,0.3762437 0.052,0.4562811 -0.0253,0.5321904 l -0.22301,-0.2078199 c 0.12073,0.298826 0.31542,0.6419967 0.17743,0.7855881 -0.0343,-0.065095 -0.0464,-0.1333532 -0.22811,-0.1773786 0.23509,0.4168729 0.43012,0.8338128 0.13684,1.2518507 -0.0124,-0.2618005 -0.11346,-0.3954883 -0.22301,-0.5169413 0.05,0.2058542 0.10903,0.393551 0.10646,0.704467 0.004,0.3304258 -0.0712,0.5417551 -0.40543,0.359858 -0.0484,-0.1355866 -0.0745,-0.3084488 -0.1521,-0.3953456 -0.042,-0.045978 -0.0684,-0.0547 -0.0557,0.030441 0.034,0.2187328 0.0911,0.3771971 0.19257,0.420629 0.079,0.1182926 0.14157,0.1052713 0.20782,0.1216527 0.21482,0.00305 0.34759,-0.1689724 0.35986,-0.5980624 0.16939,-0.064446 0.41363,-0.3903664 0.11655,-1.1454462 0.10717,-0.00295 0.25634,-0.1082321 0.0101,-0.572666 0.27431,-0.092999 0.21051,-0.3445189 0.0557,-0.638652 z m -6.7118,0.2872967 c -0.14959,0.1895321 -0.0564,0.3721224 0.0882,0.5179625 -0.0892,-0.1454891 -0.11977,-0.3175988 -0.0882,-0.5179625 z m 5.94554,0.3494838 c 0.0657,0.2544431 0.18593,0.6946467 -0.0206,0.6461346 l -0.1564,-0.1111084 -0.0535,-0.074093 c -0.0387,0.1718969 0.007,0.3687437 -0.18934,0.2346336 0.10219,0.1970464 0.20094,0.1696634 0.22222,0 l 0.008,-0.1152473 c 0.0926,0.1264245 0.17475,0.2037424 0.23458,0.1769814 0.24328,-0.074972 0.16777,-0.6190214 -0.0453,-0.7573012 z m -5.39997,0.4415464 c -0.18548,0.2971674 -0.11025,0.583807 0.0344,0.5887095 -0.10796,-0.1591181 -0.0641,-0.3766113 -0.0344,-0.5887095 z m 5.04193,0.9948253 c -0.0228,0.1185011 0.0418,0.3243749 -0.17285,0.2510161 0.0204,0.1090713 0.0759,0.1217415 0.13991,0.1111654 0.13507,-0.065654 0.12697,-0.26909 0.0329,-0.3621815 z m -4.09801,0.3719886 c -0.0151,-7.679e-4 -0.0336,0.01918 -0.0497,0.068423 -0.12499,0.366745 1.8e-4,0.509338 0.13333,0.5266353 0.29796,-0.02409 0.28735,-0.092267 0.37323,-0.146653 -0.10055,0.041756 -0.17177,0.096822 -0.38661,0.086619 -0.12438,-0.1078931 -0.12393,-0.2617709 -0.04,-0.4464203 0.003,-0.052088 -0.0108,-0.087556 -0.0303,-0.088605 z"
         style="fill:#ffffff;fill-opacity:1;stroke:none;stroke-width:0.264582px;stroke-linecap:butt;stroke-linejoin:miter;stroke-opacity:1"
         id="path1088" />
      <path
         d="m -105.67182,-6.876489 c -0.31254,0.013932 -0.68848,0.4891644 -0.68848,0.4891644 0,0 -0.72039,0.5182388 -1.11228,2.0529142 -0.0321,0.1256775 -0.16064,0.5943069 -0.0955,1.1033833 0.0712,0.5563 0.32159,0.7087188 0.32159,0.7087188 -0.22236,-0.6036515 -0.33731,-1.0914985 -0.10221,-1.8084174 0.31363,-0.9563678 0.87435,-1.736442 1.40015,-2.00728 0.6958,-0.3584086 1.07164,0.9219803 1.07164,0.9219803 0,0 -0.13191,-0.7862903 -0.55691,-1.3431186 -0.0679,-0.088996 -0.15047,-0.1212459 -0.23798,-0.117345 z m -7.38536,0.5307735 c -0.0664,0.00145 -0.13453,0.00965 -0.2042,0.025907 -0.74307,0.1733832 -1.85768,1.3210101 -1.85768,1.3210101 -0.11146,0.1609987 0.0826,0.016496 0.0826,0.016496 0,0 0.62745,-0.412789 0.93706,-0.6150691 0.30961,-0.2022803 0.84215,-0.3591741 1.18479,-0.3344051 0.34263,0.024769 0.87107,0.3921704 0.87107,0.3921704 0,0 0.48297,0.4293221 0.77607,0.8091137 0.2931,0.3797915 0.38804,1.2343365 0.41694,1.1889267 0.0289,-0.04541 -0.0289,-0.5036492 -0.161,-0.9329785 -0.1321,-0.4293296 -0.93297,-1.2714645 -0.93297,-1.2714645 0,0 -0.47126,-0.6136921 -1.11268,-0.5997067 z m 7.2433,0.8877407 c -0.0626,-5.814e-4 -0.12596,0.00546 -0.18968,0.018254 l 0.20249,0.1110526 c 1.4179,0.2077977 0.97653,2.9832845 0.28089,3.5664377 0.30621,-0.1752076 0.80481,-0.6559647 0.8806,-1.9624957 -0.0386,-1.1039146 -0.56931,-1.727608 -1.1743,-1.7332486 z m 0.2937,3.6957441 c -0.21562,0.1203911 -0.41477,0.2451878 -0.83604,0.2214259 l 0.67125,0.90758081 c 0.009,-0.16991683 -0.14737,-0.36357028 -0.27494,-0.55305191 -0.0982,-0.4176298 0.31991,-0.3561074 0.43973,-0.5759548 z m -6.92794,-3.2613406 c 0.69321,0.2751269 1.51275,1.3066455 0.98666,2.7988769 -0.0361,0.1697929 -0.26183,0.4498407 -0.89585,0.9660272 0.40219,-0.076982 0.46173,-0.1688659 0.63162,-0.2559481 0.58701,-0.1029589 0.39805,0.460646 0.29722,1.0031021 -0.14108,1.41227416 0.50909,2.0626464 0.76371,2.1012692 -0.34714,-0.305396 -0.65361,-0.91677578 -0.61921,-1.76272669 0.0649,-0.58059506 0.33157,-1.13605481 0.34676,-1.70496041 0.072,-0.9516369 -0.0411,-1.5682537 -0.19818,-2.1053514 -0.40305,-0.907937 -1.0128,-0.9809539 -1.31273,-1.0402888 z m -2.16114,0.6117812 c -0.0258,8.995e-4 -0.50206,0.4880911 -0.62952,0.7463599 -0.15687,0.3178679 -0.28897,0.6357354 -0.18577,1.205422 0.1032,0.5696877 0.98252,0.9783859 0.98252,0.9783859 l -0.19812,-0.2394527 c 0,0 -0.47064,-0.2765528 -0.59036,-0.6357033 -0.11971,-0.3591505 -0.0248,-0.74721 -0.0248,-0.74721 0,0 0.0867,-0.2683374 0.13622,-0.3509011 0.0495,-0.082563 0.16514,-0.2765829 0.16514,-0.2765829 0,0 0.004,-0.2724378 0.28072,-0.5944348 0.0519,-0.060375 0.0699,-0.086092 0.0639,-0.085883 z m 7.40068,2.9695091 c -0.63441,2.194e-4 -1.16519,0.2299231 -1.44715,0.4008437 -0.44789,0.2992539 -0.24398,0.52754364 0.0337,0.7477771 0.5487,0.33383423 0.66671,0.34560491 1.03773,0.586442 0.27292,0.17715585 0.32566,0.23389974 0.49144,0.25560803 -0.18726,1.46723877 -1.85461,1.92706857 -3.39184,1.17889217 0.47653,0.553664 2.08514,0.6432353 2.82592,0.051756 0.23096,0.2793907 0.50199,0.4276486 0.83167,0.3839512 0.48441,-0.055899 0.95472,-0.3792736 1.14273,-0.9285563 l 0.18395,0.1314038 c 0.13573,0.054264 0.0854,-0.023889 0.0278,-0.066326 l -0.18413,-0.1286821 0.0609,-0.15612 0.10776,0.029024 -0.004,-0.0455766 -0.10362,-0.0248863 0.0248,-0.0787407 0.26944,0.0538544 c 0.0156,-0.0131178 0.0302,-0.0264714 -0.004,-0.0538544 l -0.2517,-0.0539104 0.003,-0.10776479 0.1873,0.0846929 c 0.0614,0.0769285 0.14641,0.0594545 0.1153,-0.0225628 l -0.29433,-0.12017941 0.0122,-0.10101831 c 0.1045,0.0131693 0.26698,0.001316 0.27794,0.0595796 0.0654,0.12037466 0.12037,0.0852776 0.14921,0.0373009 0.005,-0.0595939 0.0484,-0.12033847 -0.42698,-0.1658141 -0.01,-0.32336896 -0.0875,-0.51042074 -0.19898,-0.63009114 0.046,0.16103671 0.0826,0.35476585 0.0995,0.61761949 l -0.0705,0.0290252 0.0663,0.0248863 -0.003,0.0815742 c -0.0908,-0.029679 -0.16856,-0.0569896 -0.28758,-0.0442733 l 0.26535,0.11609751 6e-5,0.10521429 -0.13962,0.0217116 0.11468,0.0305544 -0.008,0.0621871 -0.29296,-0.0579923 0.27635,0.11190372 -0.0428,0.14245704 -0.17692,-0.051246 0.15754,0.1119026 c -0.12354,0.2911691 -0.31339,0.5547358 -0.65175,0.756394 -0.50341,0.2393682 -0.9516,0.1297912 -1.09131,-0.2594069 0.30058,-0.3412894 0.47461,-0.70689678 0.58605,-1.08456225 0.28131,-0.16781829 0.55789,-0.35512567 0.7747,-0.78813856 0.14316,-0.34241378 0.46542,-0.78064614 -0.13639,-1.07407609 -0.31755,-0.1217152 -0.62732,-0.1689987 -0.91569,-0.1688747 z m 0.063,0.1464259 c 0.32684,-0.00582 0.60419,0.049553 0.84171,0.1547027 0.445,0.24614763 0.13568,0.69966432 -0.0219,0.79873987 -0.18111,0.055772 -0.30757,-0.0241546 -0.3009,0.21881726 l 0.003,0.30640076 c -0.0266,0.10665902 -0.2395,0.2939302 -0.5115,0.25436185 -0.1855,-0.0103556 -0.26952,-0.17426639 -0.31729,-0.40209101 -0.0519,-0.28597594 -0.10173,-0.40653051 -0.42402,-0.30912238 -0.16173,0.0253865 -0.47995,0.12968151 -0.90815,-0.33094696 -0.0876,-0.28938648 0.32813,-0.41947169 0.7823,-0.56076149 0.31863,-0.083992 0.6028,-0.1255667 0.85701,-0.1301006 z m 0.88548,1.04369066 c -0.0692,0.12107345 -0.13817,0.24222368 -0.25714,0.34194536 -0.005,-0.07569326 -0.0124,-0.14990119 -0.0109,-0.23253618 0.009,-0.0453802 5.2e-4,-0.10547538 0.0711,-0.0956903 0.0707,-0.004563 0.13322,-0.00916 0.19694,-0.0137189 z m -1.46177,0.0132659 c 0.073,-4.388e-4 0.12385,0.0519402 0.15969,0.18644733 0.002,0.0992401 0.0226,0.18932803 0.0383,0.28174157 -0.16863,-0.11363257 -0.35402,-0.23327116 -0.62368,-0.38298696 0.12294,-0.0184469 0.21255,-0.0136081 0.31184,-0.0547046 0.0429,-0.0192302 0.0807,-0.0303076 0.11383,-0.0304974 z m -2.38159,0.5423376 c -0.0208,-0.001097 -0.0507,0.002863 -0.095,0.009182 -0.11789,0.0168409 -0.6602,0.0639818 -0.74777,0.0909282 -0.0876,0.0269475 -0.22906,0.0572792 -0.0876,0.09433 0,0 0.3133,-0.0876065 0.4615,-0.0842388 0.14821,0.003368 0.44461,0.003401 0.44461,0.003401 0,0 0.0842,0.0134535 0.0741,-0.0539115 -0.006,-0.0421035 -0.0153,-0.0578837 -0.0499,-0.0596926 z m 0.0664,0.26649234 c -0.0192,-4.3879e-4 -0.0397,0.00373 -0.0536,0.008787 -0.037,0.0134732 -0.48165,0.11451894 -0.7848,0.24251219 -0.30314,0.12799434 -0.0876,0.11785598 -0.0876,0.11785598 0,0 0.18529,-0.0942927 0.37392,-0.14818331 0.18862,-0.0538928 0.48162,-0.13134783 0.48162,-0.13134783 0,0 0.0977,0.033694 0.11791,-0.0336731 0.0126,-0.0421024 -0.0156,-0.0552937 -0.0475,-0.0559508 z m 0.20912,0.056915 c -0.0378,2.194e-4 -0.0808,0.0495455 -0.0808,0.0495455 l -0.79154,0.32335141 c 0,0 -0.12126,0.0875506 0.0168,0.0437632 0.13809,-0.0437874 0.82855,-0.31994962 0.82855,-0.31994962 0,0 0.10443,0.0370562 0.0708,-0.0572551 -0.0105,-0.0294728 -0.0266,-0.0395453 -0.0438,-0.0394554 z m -0.27596,0.30736501 c -0.01,6.582e-4 -0.0229,0.006176 -0.0406,0.0150222 -0.0472,0.0235787 -0.60968,0.28293179 -0.60968,0.28293179 0,0 -0.11789,0.074077 0,0.043763 0.11789,-0.030314 0.60628,-0.2526034 0.60628,-0.2526034 0,0 0.091,0.01007 0.0775,-0.0438203 -0.008,-0.033683 -0.0168,-0.0463137 -0.0335,-0.0452933 z m 4.68995,0.0738646 c -0.047,0.00211 -0.0446,0.091098 -0.0446,0.091098 0,0 0.005,0.084754 0.0629,0.019104 0.0575,-0.06565 -0.008,-0.1094092 -0.008,-0.1094092 -0.004,-6.582e-4 -0.007,-9.873e-4 -0.0101,-7.679e-4 z m -1.4671,1.3201601 c -0.008,-0.00255 -0.0222,0.01689 -0.0424,0.060543 -0.24452,0.4797073 -0.63372,0.8481263 -1.41999,0.9110967 -0.63587,0.030069 -1.06665,-0.1134615 -1.48915,-0.2639419 -0.072,-0.045484 -0.088,-0.041187 -0.009,0.047165 0.30525,0.1503444 0.55576,0.2908148 1.44516,0.3298697 0.3567,-0.00887 1.34469,-0.2209827 1.52055,-0.9707892 0.007,-0.071068 0.006,-0.1106674 -0.005,-0.113943 z"
         style="fill:#ffffff;fill-opacity:1;stroke:none;stroke-width:0.264582px;stroke-linecap:butt;stroke-linejoin:miter;stroke-opacity:1"
         id="path1025" />
      <path
         d="m -106.13377,-5.2466404 c -0.37116,0.011427 -0.75039,0.7122901 -0.75039,0.7122901 0,0 -0.32354,0.5624104 -0.26961,1.3135844 0.0539,0.7511745 0.26961,0.974587 0.26961,0.974587 0,0 0.443,0.6394682 0.82822,0.5084944 0.38522,-0.1309737 0.547,-0.2927674 0.6433,-0.5007848 0.0963,-0.2080174 0.29664,-0.8359595 0.11944,-1.5447597 0,0 -0.2427,0.1694968 -0.36212,-0.080894 -0.11942,-0.2503912 -0.0462,-0.3158677 -0.0462,-0.3158677 0,0 0.0732,-0.1463615 0.2157,-0.134805 0.14253,0.011557 0.0809,-0.1579341 0.0809,-0.1579341 0,0 -0.26194,-0.674145 -0.65486,-0.7665975 -0.0246,-0.00578 -0.0492,-0.00807 -0.074,-0.00731 z m -6.83708,0.3544727 c -0.0194,-5.81e-5 -0.0392,1.755e-4 -0.0593,6.802e-4 -0.644,0.016513 -1.06092,0.3096321 -1.06092,0.3096321 0,0 -0.54491,0.272439 -0.73894,1.0361507 -0.19402,0.7637109 0.22704,1.4531227 0.34263,1.6966847 0.11559,0.243562 0.83386,0.88755861 1.96085,0.4417164 1.12699,-0.4458432 0.9082,-1.9072251 0.9082,-1.9072251 -0.0206,-0.04541 -0.0743,0.012415 -0.0743,0.012415 0,0 -0.13618,0.1362228 -0.37148,-0.049547 -0.23531,-0.1857661 -0.004,-0.516034 -0.004,-0.516034 0,0 0.13209,-0.1940193 0.29722,-0.090815 0.16512,0.1032039 -0.0495,-0.3261335 -0.11559,-0.4210815 -0.0661,-0.094948 -0.21468,-0.2435336 -0.21468,-0.2435336 0,0 -0.26729,-0.2673481 -0.86949,-0.2690432 z m 6.61015,0.9850178 c 0.0536,-1.67e-5 0.11266,0.00406 0.17767,0.00839 0,0 0.35821,0.3120237 0.28117,0.8243631 -0.077,0.5123394 -0.45453,0.4006166 -0.45453,0.4006166 0,0 -0.52006,-0.1232904 -0.43531,-0.6934125 0.0689,-0.4632239 0.19876,-0.5398836 0.431,-0.5399572 z m -6.81009,0.013208 c 0.33678,-0.00505 0.45436,0.3358792 0.45436,0.3358792 l -0.0372,0.049488 0.066,0.045465 -0.0206,0.045408 0.0413,0.082537 c 0,0 0.0455,0.3467831 0.0165,0.4706275 -0.0289,0.1238456 -0.008,0.1939815 -0.0372,0.2146224 -0.0289,0.020641 -0.0289,0.078457 -0.0289,0.078457 l -0.0495,0.016496 v 0.066099 l -0.0537,0.020634 -0.0413,0.045408 c 0,0 -0.13211,0.1320763 -0.39631,0.082539 -0.2642,-0.049538 -0.2766,-0.070161 -0.35504,-0.1320839 -0.0784,-0.061923 -0.11145,-0.1032299 -0.11145,-0.1032299 0,0 0.0372,-0.049529 -0.0371,-0.066042 -0.0743,-0.016513 -0.11972,-0.3550401 -0.11972,-0.3550401 0,0 -3e-5,-0.668753 0.49948,-0.8545206 0.0781,-0.029026 0.14795,-0.041808 0.21031,-0.042743 z"
         style="fill:#ffa928;fill-opacity:1;stroke:none;stroke-width:0.264582px;stroke-linecap:butt;stroke-linejoin:miter;stroke-opacity:1"
         id="path1029" />
      <path
         id="path949"
         style="fill:#ffa928;fill-opacity:1;stroke:none;stroke-width:0.264582px;stroke-linecap:butt;stroke-linejoin:miter;stroke-opacity:1"
         d="m -105.93531,-9.618451 c 0,0 -0.14747,0.031275 -0.13406,0.1653603 0.0134,0.1340846 0.0491,0.2949498 0.0491,0.2949498 0,0 0.0313,0.1251468 0.21457,0.1430248 0.18325,0.017878 0.3039,0.00898 0.27262,-0.1519248 -0.0313,-0.1609015 -0.40227,-0.4514101 -0.40227,-0.4514101 z m -8.46324,0.4916586 c -0.24401,0.00682 -0.31773,0.3245336 -0.32953,0.3481239 -0.0135,0.02696 -0.0269,0.3572551 0.45833,0.1685346 0,0 0.32351,-0.3909045 -0.0135,-0.4987448 -0.0421,-0.01348 -0.0804,-0.018888 -0.11531,-0.017914 z m 9.14634,0.4975542 c -0.14142,0.0044 -0.20929,0.2130353 -0.20929,0.2130353 0,0 -0.0313,0.2682041 -0.0581,0.558721 -0.0268,0.2905169 -0.0135,0.2279168 0.37987,0.5273723 0.39331,0.2994559 0.54976,0.062584 0.54976,0.062584 0,0 -0.24137,-1.0458621 -0.49613,-1.2827453 -0.0637,-0.059221 -0.11896,-0.080434 -0.1661,-0.078967 z m -11.48065,0.090758 c -0.0844,0.00186 -0.15964,0.027766 -0.17228,0.063151 0,0 -0.31678,0.3976462 -0.1348,0.5661472 0.18198,0.1685004 0.31008,0.067402 0.31008,0.067402 0,0 0.16175,-0.1213067 0.24938,-0.4380881 0.0548,-0.1979884 -0.11166,-0.2617061 -0.25238,-0.2586121 z m 10.46593,0.039002 c -0.1846,0.00221 -0.41474,0.3917168 -0.41474,0.3917168 0,0 -0.0134,0.1072335 -0.004,0.3530554 0.009,0.2458221 0.33074,0.2681756 0.40226,0.2592361 0.0715,-0.00894 0.25024,-0.00895 0.34857,-0.2056087 0.0983,-0.1966577 -0.0268,-0.4692669 -0.0268,-0.4692669 0,0 -0.004,0.00893 -0.1877,-0.259236 -0.0343,-0.050282 -0.0745,-0.070408 -0.11711,-0.069897 z m -12.04686,0.2263565 c 0,0 -0.38417,0.1752248 -0.31677,0.3706858 0.0674,0.1954609 0.35044,0.3976691 0.35044,0.3976691 0.22917,-0.1011003 0.33028,-0.2830729 0.26962,-0.4448339 -0.0607,-0.1617606 -0.30329,-0.323521 -0.30329,-0.323521 z m 2.84587,0.05975 c -0.10771,0.00677 -0.13639,0.1087282 -0.13639,0.1087282 0,0 -0.24262,0.2224519 -0.0472,0.4246529 0.19546,0.2022011 0.30328,0.047165 0.30328,0.047165 l 0.22919,-0.1819698 c 0,0 0.12805,-0.1550261 -0.1483,-0.3302668 -0.0863,-0.054762 -0.15165,-0.071386 -0.20062,-0.068309 z m 1.12334,0.4793004 c -0.16394,-0.00106 -0.34308,0.06077 -0.34308,0.06077 0,0 -0.18873,0.074153 -0.34376,0.404415 -0.15502,0.3302617 0.12132,0.3841775 0.12132,0.3841775 0.22242,0.0674 0.1146,0.013494 0.4179,0.080894 0.30331,0.0674 0.39769,-0.1617792 0.41791,-0.2156994 0.0202,-0.05392 0.0337,-0.2291218 -0.007,-0.5391634 -0.0177,-0.1356433 -0.13604,-0.1745648 -0.26355,-0.1753941 z m 1.97361,0.1641131 c 0,0 -0.47199,0.030948 -0.50294,0.1547593 -0.031,0.1238117 0,0.3791321 0,0.3791321 0,0 0.15475,0.3405293 0.3869,0.2786236 0.23214,-0.061906 0.35594,-0.2399055 0.35594,-0.2399055 0.11608,-0.5494137 -0.2399,-0.5726095 -0.2399,-0.5726095 z m 4.54834,0.3007887 c -0.058,0.00345 -0.10607,0.037414 -0.10607,0.037414 -0.22347,0.1072677 -0.25028,0.2279442 -0.25028,0.2279442 0,0 -0.0715,0.290476 -0.0715,0.4066824 0,0.116207 0.11621,0.1564602 0.11621,0.1564602 0,0 0.0581,0.053643 0.24132,0.00448 0.18325,-0.049164 0.21456,-0.1206585 0.3263,-0.2189875 0.11174,-0.098329 0.0581,-0.2011303 0.0581,-0.2011303 0,0 -0.0894,-0.1877625 -0.1788,-0.3352553 -0.0391,-0.064528 -0.0902,-0.080287 -0.13531,-0.077606 z m -9.41827,0.023186 c -0.0678,-0.00328 -0.15522,0.029993 -0.26411,0.1388864 -0.31679,0.3167818 -0.43809,0.4987449 -0.43809,0.4987449 0,0 -0.0809,0.1954412 -0.0742,0.4313419 0.007,0.2359013 0.007,0.3909198 0.19546,0.4515801 0.18872,0.06066 0.44483,0.1011323 0.44483,0.101132 0,0 0.5864,-0.1482924 0.59988,-0.5324742 0.0135,-0.3841818 -0.27635,-0.9435788 -0.27635,-0.9435788 0,0 -0.058,-0.1393735 -0.18747,-0.1456323 z m 6.05449,0.1919469 c -0.03,-8.776e-4 -0.063,0.00383 -0.0976,0.01797 -0.13823,0.056549 -0.0817,0.1821965 -0.0817,0.1821965 0.0189,0.01885 0.044,0.2639082 0.289,0.1633761 0.24504,-0.1005317 0.044,-0.3078747 0.044,-0.3078747 0,0 -0.0636,-0.053018 -0.15374,-0.055668 z m 1.67378,0.1585006 c -0.0371,-2.084e-4 -0.0787,0.00347 -0.12341,0.00794 -0.17878,0.017878 -0.19663,0.1876844 -0.24132,0.3530554 -0.0447,0.1653712 0.27709,0.1787954 0.27709,0.1787954 0.18325,0.026817 0.24583,-0.151985 0.25924,-0.3531121 0.0101,-0.1508453 -0.0603,-0.1860465 -0.1716,-0.1866752 z m 4.61467,0.087244 c -0.0616,0.00251 -0.0943,0.090531 -0.0943,0.090531 0,0 -0.12516,0.071515 -0.0358,0.2011305 0.0894,0.1296155 0.11178,0.1385445 0.25034,0.080441 0.13855,-0.058104 0.0804,-0.1877519 0.0804,-0.1877519 0,0 -0.0224,-0.053596 -0.12965,-0.1519252 -0.0268,-0.024582 -0.0506,-0.033264 -0.0711,-0.032426 z m -14.29875,0.038152 c 0,0 -0.18873,1.3614976 -0.14155,1.3749772 0.0472,0.01348 0.10107,0.013511 0.28979,-0.09433 0.18872,-0.1078407 0.16854,-0.1280941 0.10788,-0.687517 -0.0607,-0.5594225 -0.25612,-0.5931306 -0.25612,-0.5931302 z m 3.64212,0.5501607 c -0.0362,8.447e-4 -0.0935,0.012652 -0.17778,0.056462 -0.1685,0.087621 -0.35045,0.2763559 -0.35045,0.2763559 0,0 -0.10787,0.2561037 -0.0337,0.4987448 0,0 -0.007,0.087652 0.16179,0.1011321 0.1685,0.01348 0.34371,0 0.34371,0 0,0 0.0809,-0.00673 0.14155,-0.1213134 0.0607,-0.1145807 0.15504,-0.2426828 0.15504,-0.2426828 0,0 0.0674,-0.080868 -0.0405,-0.3100292 -0.10784,-0.2291613 -0.14824,-0.2493722 -0.14824,-0.2493722 0,0 -0.0152,-0.01014 -0.0514,-0.0093 z m 4.33564,0.1548729 c -0.0518,-2.304e-4 -0.0976,0.017091 -0.14671,0.059466 -0.11221,0.096857 -0.24507,0.3706901 -0.0566,0.4900716 0.18849,0.1193816 0.31683,0.060702 0.41473,-0.037698 0.10378,-0.1043163 0.22619,-0.3643897 0.0377,-0.4397889 -0.10603,-0.042412 -0.18254,-0.071751 -0.24915,-0.072051 z m 6.7652,0.1962553 c -0.0307,6.143e-4 -0.15636,0.022618 -0.20329,0.3354822 -0.0536,0.3575594 0.24586,0.5184722 0.24586,0.5184722 l -0.0358,-0.8536709 c 0,0 -0.002,-3.729e-4 -0.007,-2.852e-4 z m -4.46269,0.00924 c 0,0 -0.0491,0.017855 -0.12959,0.1027762 -0.0804,0.08492 -0.19667,0.1877143 -0.17879,0.3396768 0.0179,0.1519629 0.067,0.2056091 0.067,0.2056091 0,0 0.0268,0.1430196 0.18776,0.1117329 0.1609,-0.031286 0.43355,-0.1876955 0.43355,-0.1876955 0,0 0.0983,-0.026847 0.0625,-0.2145656 -0.0358,-0.1877181 -0.0894,-0.2905155 -0.21899,-0.3128631 -0.12962,-0.022347 -0.22347,-0.04467 -0.22347,-0.04467 z m 1.24086,0.8167669 c -0.0296,0.00112 -0.0788,0.014548 -0.1682,0.032425 -0.17878,0.035756 -0.2458,0.1966665 -0.18769,0.4603666 0.0581,0.2636999 0.25475,0.1295897 0.25475,0.1295897 0,2e-7 0.12069,-0.111726 0.17432,-0.1653599 0.0536,-0.053634 -0.0223,-0.4156963 -0.0223,-0.4156963 -0.0112,-0.031286 -0.0212,-0.042443 -0.0508,-0.041326 z m -10.29332,0.1624688 c -0.11719,-0.00236 -0.21008,0.1659836 -0.21008,0.1659836 0,0 -0.22915,0.2628731 -0.31003,0.5324744 -0.0809,0.2696011 0.15502,0.377414 0.26286,0.3571938 0.10784,-0.02022 0.31676,0.1078486 0.492,0.074148 0.17524,-0.0337 0.20895,-0.3302665 0.20895,-0.3302665 0,0 -0.0606,-0.1887409 -0.24937,-0.6066227 -0.0649,-0.1436471 -0.13294,-0.1916753 -0.19433,-0.1929106 z m 7.72295,0.1558933 c -0.0821,0.00483 -0.14548,0.051409 -0.20238,0.1011319 -0.0714,0.062403 -0.0713,0.1187466 -0.1445,0.2450641 -0.0732,0.1263174 -0.0684,0.2390972 0.0426,0.3472731 0.11099,0.1081762 0.1967,0.1181525 0.39404,0.085146 0.19734,-0.033006 0.19604,-0.056212 0.25453,-0.2376378 0.0585,-0.1814252 0.0399,-0.2501226 -0.0188,-0.3518651 -0.0575,-0.099634 -0.18877,-0.1794707 -0.28906,-0.1884889 -0.0125,-0.00113 -0.0247,-0.00131 -0.0364,-6.253e-4 z m -5.57576,0.063888 c -0.0709,0 -0.12636,0.027097 -0.12636,0.027097 -0.18872,0.08088 -0.45157,0.4920173 -0.31003,0.7076981 0.14154,0.2156812 0.46508,0.1078216 0.46508,0.1078216 0,0 0.33698,-0.2291691 0.23588,-0.593131 -0.0569,-0.2047284 -0.17345,-0.2494856 -0.26457,-0.2494857 z m 7.04773,0.2473879 c -0.0564,0.00279 -0.12684,0.021813 -0.1827,0.08662 -0.11174,0.1296151 -0.20112,0.2726012 -0.10726,0.379869 0.0939,0.1072677 0.0939,0.1117895 0.0939,0.1117895 0,0 0.067,0.1430081 0.22346,0.049149 0.15643,-0.093859 0.15198,-0.084919 0.15198,-0.084919 0,0 0.0536,-0.031279 0.0715,-0.1385466 0.0179,-0.1072677 -0.0134,-0.2190285 0.0313,-0.2681928 0.0447,-0.049164 -0.18327,-0.1251679 -0.18327,-0.1251679 0,0 -0.0424,-0.013394 -0.0989,-0.010601 z m -10.39495,0.8278777 c -0.10301,0.00428 -0.20306,0.1043642 -0.20306,0.1043642 l -0.10108,1.2199349 c 0,0 0.18871,0.074113 0.24263,0.033672 0.0539,-0.04044 0.0809,0.033713 0.34376,-0.1819694 0.26286,-0.215681 0.14824,-0.4111039 0.14824,-0.4111039 0,0 -0.14823,-0.3370407 -0.26281,-0.6268616 -0.043,-0.108683 -0.10588,-0.1406031 -0.16768,-0.1380362 z m 2.30603,0.9891561 c -0.18167,0.011519 -0.31859,0.287978 -0.31859,0.287978 -0.22242,0.3235225 -0.25608,1.0177173 0.31008,1.0716375 0.56616,0.05392 0.68746,-0.1752449 0.36394,-0.9773086 -0.12132,-0.3007732 -0.24644,-0.3892179 -0.35543,-0.3823069 z m -1.61716,0.5823042 c -0.0148,1.097e-4 -0.0224,0.00222 -0.0224,0.00222 0,0 0.0135,0.067432 -0.12132,0.1011324 -0.1348,0.033701 -0.16854,0.3572176 -0.17528,0.3841772 -0.007,0.026961 -0.0337,0.444834 0.22919,0.444834 0.26287,0 0.3572,-0.1213136 0.3572,-0.1213136 0,0 0.054,-0.1887159 0.16853,-0.3841772 0.11458,-0.1954613 -0.11457,-0.2628646 -0.11457,-0.2628646 -0.16681,-0.146596 -0.27676,-0.1643156 -0.32131,-0.1639986 z m 3.14366,0.7857581 c -0.0691,-0.00169 -0.1331,0.025282 -0.1331,0.025282 -0.16176,-0.02696 -0.20222,0.1819815 -0.0876,0.32352142 0.11458,0.14154105 0.24268,0.0336731 0.24268,0.0336731 0,0 0.18199,-0.006725 0.14155,-0.23588082 -0.0202,-0.1145815 -0.0944,-0.144911 -0.16349,-0.146596 z m -2.59996,0.98909905 c 0,0 -0.41786,0.14153775 -0.36394,0.57963958 0.0539,0.43810292 0.5729,0.30328202 0.5729,0.30328202 0,0 0.21565,-0.21568316 0.22239,-0.26286351 0.007,-0.0471804 0.0809,-0.10784048 -0.10783,-0.32352035 -0.18872,-0.21568206 -0.14154,-0.22239672 -0.32352,-0.29653774 z m 1.74124,0.46348502 c -0.0225,-5.4849e-4 -0.036,0.001591 -0.036,0.001591 0,0 -0.35721,0.0404207 -0.50549,0.43134218 -0.14828,0.39092265 0.26955,0.76160905 0.26955,0.76160905 0,0 0.78189,-0.026954 0.70101,-0.64029646 -0.0657,-0.49834071 -0.33166,-0.55173989 -0.42908,-0.55424212 z m 1.58949,0.0454636 c -0.17505,0.002808 -0.42239,0.20927016 -0.45946,0.38071948 -0.0539,0.24938153 0.29654,0.37743175 0.29654,0.37743175 0.36396,-0.0674 0.40441,-0.27631141 0.33027,-0.61331264 -0.0232,-0.10531303 -0.0878,-0.14611329 -0.16735,-0.14483859 z m 0.60679,1.48421673 c -0.0994,0.00263 -0.19682,0.089511 -0.19682,0.089511 -0.12132,0.1145803 0.0337,0.2898022 0.0876,0.303282 0.0539,0.013482 0.37745,-0.013489 0.26961,-0.26961 -0.0404,-0.096046 -0.10079,-0.1247637 -0.16043,-0.123183 z m -2.94672,0.4736882 -0.26961,0.3032831 c 0,0 0.14157,0.3639718 0.41791,0.3370122 0.27634,-0.026961 0.49202,-0.047201 0.51224,-0.2831019 0.0202,-0.2359017 -0.66054,-0.3571934 -0.66054,-0.3571934 z m 1.42215,0.6739684 c 0,0 0.12131,0.5257698 0.31677,0.5729502 0.19546,0.047179 0.41791,0.1078207 0.41791,0.1078207 0,0 0.29655,-0.02698 0.37743,-0.2831018 0.0809,-0.2561215 -1.11211,-0.3976691 -1.11211,-0.3976691 z m -1.33978,0.7270287 c -0.0397,-0.0012 -0.0849,0.00513 -0.13628,0.021144 -0.41114,0.1280602 -0.28985,0.3370133 -0.28985,0.3370133 0.0742,0.3167816 0.23591,0.3302427 0.26287,0.3032831 0.027,-0.026961 0.0944,-0.080905 0.28985,-0.087641 0.19546,-0.00674 0.16173,-0.1887159 0.16173,-0.1887159 0,0 -0.0103,-0.376699 -0.28832,-0.3850835 z m 10.5771,0.035373 c 0,0 -0.25103,0.00415 -0.20164,0.2634306 0.0494,0.259284 0.13576,0.5926213 0.13576,0.5926213 0,0 0.0988,0.3539848 0.4157,0.4198337 0.3169,0.065851 0.37862,0.069954 0.37862,0.069954 0,0 0.12758,-0.024713 0.20578,-0.2716503 0.0782,-0.2469364 -0.0905,-0.1769815 -0.0905,-0.1769815 z m -8.68246,0.8209044 c -0.15639,-0.0019 -0.2246,0.1421751 -0.2246,0.1421751 -0.10784,0.080881 -0.11456,0.4313291 0.1483,0.5459094 0.26286,0.1145815 0.41785,-0.1078207 0.41785,-0.1078207 0,0 0.13478,-0.3437411 -0.15504,-0.5189827 -0.0725,-0.04381 -0.13438,-0.060649 -0.18651,-0.061281 z" />
      <path
         id="path1073"
         style="opacity:0.937908;fill:#ffffff;fill-opacity:1;fill-rule:evenodd;stroke:none;stroke-width:0.264582"
         d="m -111.33958,-16.386084 a 11.581365,11.581365 0 0 0 -11.57436,11.5813864 11.581365,11.581365 0 0 0 4.27244,8.9837529 l 0.13202,-0.1755071 a 11.361943,11.361943 0 0 1 -4.18508,-8.8082458 11.361943,11.361943 0 0 1 11.36195,-11.3619454 11.361943,11.361943 0 0 1 11.361946,11.3619454 11.361943,11.361943 0 0 1 -5.330246,9.6286972 l 0.13351,0.1752811 a 11.581365,11.581365 0 0 0 5.416177,-9.8039783 11.581365,11.581365 0 0 0 -11.581387,-11.5813864 11.581365,11.581365 0 0 0 -0.007,0 z" />
      <g
         aria-label="Cheetah"
         id="text1242"
         style="font-style:normal;font-variant:normal;font-weight:normal;font-stretch:normal;font-size:105.833px;line-height:1.25;font-family:'Script MT Bold';-inkscape-font-specification:'Script MT Bold, ';letter-spacing:-2.11667px;word-spacing:0px;fill:#ffa928;fill-opacity:1;stroke:none;stroke-width:2.4119"
         transform="matrix(0.10969878,0,0,0.10969878,-109.43043,-14.588551)">
        <path
           d="m 155.84575,66.04023 q -12.24728,12.712362 -29.55883,12.712362 -12.4023,0 -20.36045,-7.75144 -7.906467,-7.803117 -7.906467,-19.998716 0,-12.143924 5.736067,-23.099293 5.73606,-10.955369 14.98612,-17.518255 9.30173,-6.5628865 18.24172,-6.5628865 7.49306,0 12.1956,4.4958355 4.75422,4.495835 4.75422,11.678837 0,9.353405 -5.73607,16.226349 -5.68439,6.821267 -13.33248,6.821267 -4.03075,0 -6.61456,-2.067051 -2.58381,-2.06705 -2.58381,-5.322655 0,-2.790519 2.22208,-5.167627 1.65364,3.0489 4.54751,3.0489 4.1341,0 7.64809,-5.167627 3.56566,-5.167627 3.56566,-11.317103 0,-4.289131 -2.01538,-6.821268 -1.96369,-2.5321373 -5.27098,-2.5321373 -4.80589,0 -10.28357,5.9944473 -5.42601,5.994447 -9.09503,15.399528 -3.61734,9.405081 -3.61734,17.87999 0,10.80034 6.0978,17.72496 6.14948,6.92462 15.60624,6.92462 5.99445,0 10.80034,-2.790518 4.80589,-2.790519 9.97352,-8.73329 z"
           style="font-style:normal;font-variant:normal;font-weight:normal;font-stretch:normal;font-size:105.833px;font-family:'Script MT Bold';-inkscape-font-specification:'Script MT Bold, ';fill:#ffa928;fill-opacity:1;stroke-width:2.4119"
           id="path878" />
        <path
           d="m 204.37182,66.04023 q -12.24727,12.712362 -20.15374,12.712362 -3.51399,0 -5.83942,-2.377108 -2.27376,-2.428785 -2.27376,-6.0978 0,-6.201152 4.75422,-17.466579 2.53214,-6.0978 2.53214,-7.958145 0,-2.118727 -2.01538,-2.118727 -2.06705,0 -5.99444,2.842194 -3.9274,2.790519 -8.26821,7.648088 -1.80867,9.508434 -1.80867,22.840911 l -11.5238,2.687166 q -0.6718,-5.426008 -0.6718,-11.782189 0,-15.399528 4.23746,-28.68033 4.23745,-13.280801 13.33248,-28.163567 6.76959,-2.7388419 11.78219,-4.4441588 5.06427,-1.7569931 5.78774,-1.7569931 1.34358,0 2.27375,2.1704033 0.93018,2.1704033 0.93018,5.4260086 0,5.477684 -3.35896,12.143923 -3.35896,6.614563 -10.54196,16.019644 6.87294,-3.979073 9.1467,-5.012599 2.27376,-1.033525 4.65086,-1.033525 2.63549,0 4.23746,1.912022 1.65364,1.860346 1.65364,4.960922 0,4.650864 -3.72069,14.417679 -3.66902,9.766815 -3.66902,12.247276 0,1.136878 0.67179,2.015375 0.72347,0.878496 1.65364,0.878496 3.30729,0 12.1956,-9.97352 z M 168.56017,44.85296 q 18.44843,-21.445652 18.44843,-31.625877 0,-3.100577 -1.70532,-3.100577 -2.84219,0 -8.11317,10.180226 -5.27098,10.180225 -8.62994,24.546228 z"
           style="font-style:normal;font-variant:normal;font-weight:normal;font-stretch:normal;font-size:105.833px;font-family:'Script MT Bold';-inkscape-font-specification:'Script MT Bold, ';fill:#ffa928;fill-opacity:1;stroke-width:2.4119"
           id="path880" />
        <path
           d="m 240.80565,66.04023 q -6.56289,6.459534 -11.78219,9.56011 -5.2193,3.0489 -11.52381,3.0489 -7.02797,0 -11.36878,-4.495836 -4.28913,-4.495835 -4.28913,-11.833865 0,-10.955369 7.59642,-19.792012 7.59641,-8.888318 16.84646,-8.888318 4.80589,0 7.69976,2.480461 2.89387,2.480461 2.89387,6.51121 0,10.696988 -22.73755,17.363227 2.06705,10.076872 10.80034,10.076872 3.41063,0 6.51121,-1.808669 3.10057,-1.860346 9.3534,-8.164851 z m -27.07836,-9.56011 q 13.22912,-3.720691 13.22912,-13.745887 0,-4.960922 -3.61734,-4.960922 -3.41063,0 -6.51121,5.219303 -3.10057,5.167627 -3.10057,13.487506 z"
           style="font-style:normal;font-variant:normal;font-weight:normal;font-stretch:normal;font-size:105.833px;font-family:'Script MT Bold';-inkscape-font-specification:'Script MT Bold, ';fill:#ffa928;fill-opacity:1;stroke-width:2.4119"
           id="path882" />
        <path
           d="m 277.34283,66.04023 q -6.56289,6.459534 -11.78219,9.56011 -5.2193,3.0489 -11.52381,3.0489 -7.02797,0 -11.36878,-4.495836 -4.28913,-4.495835 -4.28913,-11.833865 0,-10.955369 7.59641,-19.792012 7.59641,-8.888318 16.84647,-8.888318 4.80589,0 7.69976,2.480461 2.89387,2.480461 2.89387,6.51121 0,10.696988 -22.73756,17.363227 2.06705,10.076872 10.80034,10.076872 3.41064,0 6.51121,-1.808669 3.10058,-1.860346 9.35341,-8.164851 z m -27.07837,-9.56011 q 13.22913,-3.720691 13.22913,-13.745887 0,-4.960922 -3.61734,-4.960922 -3.41063,0 -6.51121,5.219303 -3.10058,5.167627 -3.10058,13.487506 z"
           style="font-style:normal;font-variant:normal;font-weight:normal;font-stretch:normal;font-size:105.833px;font-family:'Script MT Bold';-inkscape-font-specification:'Script MT Bold, ';fill:#ffa928;fill-opacity:1;stroke-width:2.4119"
           id="path884" />
        <path
           d="m 304.9917,66.04023 q -6.51121,6.459534 -11.26543,9.56011 -4.75422,3.0489 -9.04335,3.0489 -4.44416,0 -7.23468,-3.720691 -2.73884,-3.772368 -2.73884,-9.870168 0,-5.374332 2.58382,-14.210974 l 2.27375,-7.803117 -3.97907,0.206705 1.65364,-8.113174 4.90924,-0.206705 4.85757,-16.122996 13.84924,-2.842195 -5.27098,17.983342 7.18301,-0.41341 -1.70532,7.958145 -8.00982,0.620115 -3.46231,11.575485 q -1.757,6.046123 -1.757,9.611786 0,2.428785 1.18856,3.979073 1.24023,1.498611 3.15225,1.498611 2.63549,0 5.2193,-1.65364 2.58382,-1.705317 7.59642,-7.027973 z"
           style="font-style:normal;font-variant:normal;font-weight:normal;font-stretch:normal;font-size:105.833px;font-family:'Script MT Bold';-inkscape-font-specification:'Script MT Bold, ';fill:#ffa928;fill-opacity:1;stroke-width:2.4119"
           id="path886" />
        <path
           d="m 358.06529,66.04023 q -8.26821,7.854793 -11.83387,10.231902 -3.56566,2.377108 -6.82127,2.377108 -8.16485,0 -7.69976,-14.417679 -5.16763,7.389706 -9.56011,10.903693 -4.34081,3.513986 -8.99167,3.513986 -4.54751,0 -7.75144,-4.237454 -3.15226,-4.289131 -3.15226,-10.490283 0,-7.75144 4.23746,-14.779413 4.28913,-7.027973 10.95537,-11.368779 6.66624,-4.340807 11.78219,-4.340807 6.45953,0 9.04334,5.942771 l 10.54196,-5.839418 h 2.89387 l -4.54751,15.141147 q -3.51398,11.420455 -3.51398,15.657909 0,4.444159 3.15225,4.444159 2.01537,0 4.44416,-2.118727 2.42878,-2.170403 6.82127,-6.562886 z m -37.82703,2.842195 q 5.16762,0 9.71513,-8.784966 4.59919,-8.836642 4.59919,-16.278025 0,-2.893871 -1.2919,-4.495835 -1.29191,-1.653641 -3.46231,-1.653641 -5.16763,0 -9.8185,8.784966 -4.59918,8.784966 -4.59918,16.174672 0,2.790519 1.34358,4.547512 1.39526,1.705317 3.51399,1.705317 z"
           style="font-style:normal;font-variant:normal;font-weight:normal;font-stretch:normal;font-size:105.833px;font-family:'Script MT Bold';-inkscape-font-specification:'Script MT Bold, ';fill:#ffa928;fill-opacity:1;stroke-width:2.4119"
           id="path888" />
        <path
           d="m 406.6947,66.04023 q -12.24727,12.712362 -20.15374,12.712362 -3.51399,0 -5.83942,-2.377108 -2.27376,-2.428785 -2.27376,-6.0978 0,-6.201152 4.75422,-17.466579 2.53214,-6.0978 2.53214,-7.958145 0,-2.118727 -2.01538,-2.118727 -2.06705,0 -5.99444,2.842194 -3.9274,2.790519 -8.26821,7.648088 -1.80867,9.508434 -1.80867,22.840911 l -11.5238,2.687166 q -0.6718,-5.426008 -0.6718,-11.782189 0,-15.399528 4.23746,-28.68033 4.23745,-13.280801 13.33248,-28.163567 6.76959,-2.7388419 11.78219,-4.4441588 5.06427,-1.7569931 5.78774,-1.7569931 1.34358,0 2.27375,2.1704033 0.93018,2.1704033 0.93018,5.4260086 0,5.477684 -3.35896,12.143923 -3.35896,6.614563 -10.54196,16.019644 6.87294,-3.979073 9.1467,-5.012599 2.27376,-1.033525 4.65086,-1.033525 2.63549,0 4.23746,1.912022 1.65364,1.860346 1.65364,4.960922 0,4.650864 -3.72069,14.417679 -3.66902,9.766815 -3.66902,12.247276 0,1.136878 0.67179,2.015375 0.72347,0.878496 1.65364,0.878496 3.30729,0 12.1956,-9.97352 z M 370.88305,44.85296 q 18.44843,-21.445652 18.44843,-31.625877 0,-3.100577 -1.70532,-3.100577 -2.84219,0 -8.11317,10.180226 -5.27098,10.180225 -8.62994,24.546228 z"
           style="font-style:normal;font-variant:normal;font-weight:normal;font-stretch:normal;font-size:105.833px;font-family:'Script MT Bold';-inkscape-font-specification:'Script MT Bold, ';fill:#ffa928;fill-opacity:1;stroke-width:2.4119"
           id="path891" />
      </g>
      <g
         aria-label="GANG"
         id="text1246"
         style="font-style:normal;font-variant:normal;font-weight:bold;font-stretch:normal;font-size:100.806px;line-height:1.25;font-family:Montserrat;-inkscape-font-specification:'Montserrat Bold';letter-spacing:1.5875px;fill:#ffffff;fill-opacity:1;stroke:none;stroke-width:2.4119"
         transform="matrix(0.10969878,0,0,0.10969878,-109.43043,-14.588551)">
        <path
           d="m 149.50426,149.38615 c -4.23385,2.11692 -8.66932,3.3266 -12.19753,3.3266 -11.49188,0 -20.1612,-8.77013 -20.1612,-20.36282 0,-11.49188 8.56851,-20.262 19.95959,-20.262 6.45158,0 13.60881,3.02418 18.64911,7.76206 l 10.48382,-12.90317 c -7.25803,-6.45158 -18.44749,-10.483822 -29.03212,-10.483822 -22.37894,0 -39.011927,15.322512 -39.011927,35.886932 0,20.56443 16.229767,36.08855 37.802247,36.08855 9.87899,0 21.87491,-3.83063 29.43536,-9.07254 v -27.82245 h -15.92735 z"
           style="font-style:normal;font-variant:normal;font-weight:bold;font-stretch:normal;font-size:100.806px;font-family:Montserrat;-inkscape-font-specification:'Montserrat Bold';fill:#ffffff;stroke-width:2.4119"
           id="path869" />
        <path
           d="m 231.04982,167.63203 h 19.65717 L 221.07003,96.967028 H 202.1185 l -30.34261,70.665002 h 18.95153 l 4.93949,-12.49994 h 30.54422 z m -29.83858,-26.61278 9.87899,-25.2015 9.67738,25.2015 z"
           style="font-style:normal;font-variant:normal;font-weight:bold;font-stretch:normal;font-size:100.806px;font-family:Montserrat;-inkscape-font-specification:'Montserrat Bold';fill:#ffffff;stroke-width:2.4119"
           id="path871" />
        <path
           d="m 258.68936,96.967028 v 70.665002 h 17.23783 v -42.33852 l 32.05631,42.33852 h 16.12896 V 96.967028 H 306.97544 V 139.50716 L 274.91913,96.967028 Z"
           style="font-style:normal;font-variant:normal;font-weight:bold;font-stretch:normal;font-size:100.806px;font-family:Montserrat;-inkscape-font-specification:'Montserrat Bold';fill:#ffffff;stroke-width:2.4119"
           id="path873" />
        <path
           d="m 386.19931,149.38615 c -4.23385,2.11692 -8.66932,3.3266 -12.19753,3.3266 -11.49188,0 -20.1612,-8.77013 -20.1612,-20.36282 0,-11.49188 8.56851,-20.262 19.95959,-20.262 6.45159,0 13.60881,3.02418 18.64911,7.76206 l 10.48383,-12.90317 c -7.25804,-6.45158 -18.4475,-10.483822 -29.03213,-10.483822 -22.37893,0 -39.01192,15.322512 -39.01192,35.886932 0,20.56443 16.22976,36.08855 37.80225,36.08855 9.87898,0 21.8749,-3.83063 29.43535,-9.07254 v -27.82245 h -15.92735 z"
           style="font-style:normal;font-variant:normal;font-weight:bold;font-stretch:normal;font-size:100.806px;font-family:Montserrat;-inkscape-font-specification:'Montserrat Bold';fill:#ffffff;stroke-width:2.4119"
           id="path875" />
      </g>
      <path
         id="path894"
         style="font-style:normal;font-variant:normal;font-weight:bold;font-stretch:normal;font-size:30.6917px;line-height:1.25;font-family:Montserrat;-inkscape-font-specification:'Montserrat Bold';fill:#ffffff;stroke:#000000;stroke-width:0.859;stroke-linecap:round;stroke-linejoin:round;stroke-miterlimit:4;stroke-dasharray:none;stroke-opacity:1;paint-order:markers stroke fill"
         d="m -93.86375,-15.432849 c -0.101133,0.0019 -0.20889,0.02032 -0.322613,0.0564 -0.542349,0.172097 -0.791988,0.643383 -0.620909,1.182521 0.168023,0.529509 0.628841,0.768329 1.196862,0.588086 0.320914,-0.101833 0.546258,-0.293429 0.659627,-0.548405 l -0.393191,-0.203738 c -0.07887,0.152189 -0.203903,0.258935 -0.351525,0.305778 -0.195758,0.06212 -0.374816,-0.0011 -0.491488,-0.179589 l 1.206614,-0.382874 c -0.131708,-0.523593 -0.445134,-0.826315 -0.883377,-0.818184 z m -2.878921,0.178796 -0.57125,0.181233 0.7556,2.381196 0.571249,-0.181289 -0.271877,-0.856846 c -0.0723,-0.227849 0.0051,-0.429006 0.215926,-0.499425 0.182922,-0.05804 0.333907,0.02828 0.396025,0.224033 l 0.295346,0.930654 0.571193,-0.18129 -0.347217,-1.094313 c -0.129327,-0.407562 -0.461124,-0.584892 -0.843012,-0.463711 -0.253524,0.08045 -0.418902,0.249516 -0.477714,0.48718 z m 2.792245,0.259406 c 0.147447,-0.0038 0.270067,0.08856 0.321367,0.250223 l -0.667507,0.211844 c -0.02463,-0.211187 0.05457,-0.384694 0.2407,-0.443757 0.0361,-0.01146 0.07141,-0.01743 0.10544,-0.01831 z m -3.435035,0.08934 -1.928711,0.612008 0.15374,0.484629 0.667506,-0.211844 0.560081,1.76505 0.587292,-0.186335 -0.560081,-1.76505 0.673912,-0.213829 z" />
    </g>
  </g>
</svg>
