<?xml version="1.0" encoding="UTF-8" standalone="no"?>
<svg
   xmlns:dc="http://purl.org/dc/elements/1.1/"
   xmlns:cc="http://creativecommons.org/ns#"
   xmlns:rdf="http://www.w3.org/1999/02/22-rdf-syntax-ns#"
   xmlns:svg="http://www.w3.org/2000/svg"
   xmlns="http://www.w3.org/2000/svg"
   xmlns:sodipodi="http://sodipodi.sourceforge.net/DTD/sodipodi-0.dtd"
   xmlns:inkscape="http://www.inkscape.org/namespaces/inkscape"
   sodipodi:docname="opensea.svg"
   inkscape:version="1.0 (4035a4fb49, 2020-05-01)"
   id="svg860"
   version="1.1"
   viewBox="0 0 4.2333332 3.8100984"
   height="3.8100984mm"
   width="4.2333331mm">
  <defs
     id="defs854" />
  <sodipodi:namedview
     inkscape:window-maximized="1"
     inkscape:window-y="-8"
     inkscape:window-x="-8"
     inkscape:window-height="1028"
     inkscape:window-width="1920"
     showgrid="false"
     inkscape:document-rotation="0"
     inkscape:current-layer="layer1"
     inkscape:document-units="mm"
     inkscape:cy="35.692012"
     inkscape:cx="15.919364"
     inkscape:zoom="4.1892807"
     inkscape:pageshadow="2"
     inkscape:pageopacity="0.0"
     borderopacity="1.0"
     bordercolor="#666666"
     pagecolor="#ffffff"
     id="base" />
  <metadata
     id="metadata857">
    <rdf:RDF>
      <cc:Work
         rdf:about="">
        <dc:format>image/svg+xml</dc:format>
        <dc:type
           rdf:resource="http://purl.org/dc/dcmitype/StillImage" />
        <dc:title></dc:title>
      </cc:Work>
    </rdf:RDF>
  </metadata>
  <g
     transform="translate(-110.25564,-203.72879)"
     id="layer1"
     inkscape:groupmode="layer"
     inkscape:label="Layer 1">
    <g
       style="stroke-width:3.85277"
       transform="matrix(0.25955303,0,0,0.25955303,81.638453,150.85037)"
       id="g886">
      <path
         fill="#ffffff"
         d="m 111.22612,212.11119 0.0571,-0.0897 3.44143,-5.38369 c 0.0503,-0.0788 0.16854,-0.0707 0.20659,0.0149 0.57494,1.2885 1.07103,2.89097 0.83862,3.88861 -0.0992,0.41048 -0.37105,0.96636 -0.67688,1.48013 -0.0394,0.0748 -0.0829,0.14817 -0.12912,0.21884 -0.0217,0.0326 -0.0585,0.0516 -0.0979,0.0516 h -3.53928 c -0.0951,0 -0.15086,-0.1033 -0.10056,-0.18077 z"
         id="path864"
         style="stroke-width:1.01937" />
      <path
         fill="#ffffff"
         d="m 126.56573,213.11156 v 0.85219 c 0,0.0489 -0.0299,0.0924 -0.0734,0.11145 -0.26639,0.11416 -1.17841,0.53279 -1.55761,1.06015 -0.96774,1.34694 -1.70712,3.2729 -3.35989,3.2729 h -6.89509 c -2.44377,0 -4.4241,-1.9871 -4.4241,-4.43907 v -0.0788 c 0,-0.0652 0.053,-0.11825 0.11824,-0.11825 h 3.84376 c 0.0761,0 0.13182,0.0707 0.12505,0.14542 -0.0272,0.25008 0.019,0.50562 0.13726,0.73803 0.22834,0.4635 0.70133,0.753 1.21237,0.753 h 1.90286 V 213.923 h -1.88111 c -0.0965,0 -0.15356,-0.11147 -0.0978,-0.19029 0.0204,-0.0313 0.0435,-0.0639 0.0679,-0.10057 0.17806,-0.25281 0.43222,-0.64561 0.68503,-1.09278 0.17261,-0.30173 0.33978,-0.62386 0.47434,-0.94734 0.0272,-0.0585 0.0489,-0.11827 0.0707,-0.17671 0.0367,-0.1033 0.0748,-0.19979 0.10195,-0.29628 0.0272,-0.0816 0.0489,-0.16719 0.0707,-0.24739 0.0639,-0.27456 0.0911,-0.56541 0.0911,-0.86715 0,-0.11824 -0.005,-0.24193 -0.0163,-0.36017 -0.005,-0.12912 -0.0217,-0.25826 -0.0381,-0.38738 -0.0109,-0.11417 -0.0312,-0.22699 -0.053,-0.34523 -0.0272,-0.17261 -0.0652,-0.34385 -0.10874,-0.51649 l -0.0149,-0.0652 c -0.0326,-0.11827 -0.0598,-0.23106 -0.0978,-0.3493 -0.10739,-0.37108 -0.23106,-0.73261 -0.36155,-1.07104 -0.0476,-0.13456 -0.10194,-0.26368 -0.15632,-0.3928 -0.0802,-0.19436 -0.16174,-0.37105 -0.23648,-0.53824 -0.038,-0.0761 -0.0707,-0.14544 -0.10329,-0.21611 -0.0367,-0.0802 -0.0748,-0.16039 -0.11282,-0.23649 -0.0272,-0.0584 -0.0585,-0.11281 -0.0802,-0.16719 l -0.23241,-0.42949 c -0.0326,-0.0584 0.0217,-0.12777 0.0856,-0.1101 l 1.45434,0.39415 h 0.004 c 0.003,0 0.004,10e-4 0.005,10e-4 l 0.19163,0.053 0.21069,0.0598 0.0775,0.0217 v -0.86442 c 0,-0.41727 0.33436,-0.7557 0.74756,-0.7557 0.20658,0 0.39415,0.0843 0.52871,0.22153 0.13454,0.13729 0.21881,0.32486 0.21881,0.53417 v 1.28307 l 0.15497,0.0435 c 0.0122,0.004 0.0245,0.01 0.0353,0.0177 0.0381,0.0285 0.0924,0.0707 0.16174,0.12234 0.0544,0.0435 0.11282,0.0965 0.18349,0.15086 0.13999,0.1128 0.30718,0.25824 0.49067,0.42543 0.0489,0.0421 0.0965,0.0856 0.13999,0.12911 0.23651,0.22019 0.50154,0.47842 0.75435,0.76386 0.0707,0.0802 0.13999,0.16174 0.21066,0.24736 0.0707,0.087 0.14545,0.17261 0.21067,0.25825 0.0856,0.11417 0.17806,0.23241 0.25826,0.35611 0.038,0.0584 0.0815,0.11824 0.11824,0.17669 0.10329,0.15629 0.19436,0.31805 0.28136,0.47979 0.0367,0.0748 0.0747,0.15629 0.10736,0.23649 0.0965,0.21611 0.17262,0.43629 0.22154,0.65648 0.0149,0.0476 0.0258,0.0992 0.0313,0.14544 v 0.0109 c 0.0163,0.0652 0.0217,0.13454 0.0272,0.20521 0.0217,0.22563 0.0109,0.45124 -0.038,0.67823 -0.0204,0.0965 -0.0476,0.18756 -0.0802,0.28408 -0.0326,0.0924 -0.0652,0.18892 -0.10736,0.27999 -0.0815,0.18891 -0.17807,0.37785 -0.29224,0.55454 -0.0367,0.0652 -0.0802,0.13456 -0.12369,0.19981 -0.0476,0.0693 -0.0965,0.13454 -0.13999,0.19844 -0.0598,0.0815 -0.12367,0.16716 -0.18891,0.24328 -0.0585,0.0802 -0.11825,0.16039 -0.18349,0.23106 -0.0911,0.10737 -0.17807,0.20931 -0.26914,0.30718 -0.0543,0.0639 -0.11279,0.12912 -0.17261,0.18757 -0.0584,0.0652 -0.11824,0.12366 -0.17261,0.17803 -0.0911,0.0911 -0.16717,0.16174 -0.23106,0.22019 l -0.14949,0.13729 c -0.0218,0.019 -0.0503,0.0299 -0.0802,0.0299 H 119.09 v 1.48558 h 1.45704 c 0.3262,0 0.63611,-0.11554 0.88619,-0.32758 0.0856,-0.0747 0.4594,-0.39822 0.90112,-0.88617 0.0149,-0.0163 0.034,-0.0285 0.0558,-0.034 l 4.0245,-1.16345 c 0.0748,-0.0217 0.15086,0.0353 0.15086,0.11417 z"
         id="path866"
         style="stroke-width:1.01937" />
    </g>
  </g>
</svg>
